<svg width="36" height="36" viewBox="0 0 36 36" xmlns="http://www.w3.org/2000/svg">
<path fill-rule="evenodd"  d="M6 9V12H8H28H30V9H6ZM5 14H7V29C7 29.5523 7.44772 30 8 30H28C28.5523 30 29 29.5523 29 29V14H31C31.5523 14 32 13.5523 32 13V8C32 7.44772 31.5523 7 31 7H5C4.44772 7 4 7.44772 4 8V13C4 13.5523 4.44771 14 5 14ZM9 28V14H27V28H9ZM14 18H22C22.5523 18 23 18.4477 23 19C23 19.5523 22.5523 20 22 20H14C13.4477 20 13 19.5523 13 19C13 18.4477 13.4477 18 14 18ZM11 19C11 17.3431 12.3431 16 14 16H22C23.6569 16 25 17.3431 25 19C25 20.6569 23.6569 22 22 22H14C12.3431 22 11 20.6569 11 19Z" />
</svg>
