<svg width="276" height="66" fill="none" xmlns="http://www.w3.org/2000/svg"><path d="M175.555 7.71h4.299V5.905h-4.299V3.102h4.838V1.286h-7.072V12.15h2.234v-4.44zm8.528.459h1.786l2.034 3.98h2.404v-.1l-2.354-4.439c.649-.29 1.137-.688 1.457-1.187.319-.499.478-1.117.478-1.855 0-1.047-.349-1.855-1.047-2.424-.698-.568-1.686-.858-2.972-.858h-4.04V12.15h2.234v-3.98h.02zm0-5.067h1.796c.598 0 1.047.15 1.336.439.29.289.439.698.439 1.206 0 .5-.149.898-.459 1.187-.309.29-.748.43-1.306.43h-1.806V3.101zm14.952 7.251h-5.047V7.441h4.299V5.685h-4.299V3.092h5.027V1.286h-7.271V12.15h7.281v-1.796h.01zm5.416.18c-1.436 0-2.144-.599-2.144-1.796h-2.245c0 .698.18 1.317.539 1.855.359.53.888.948 1.576 1.257.688.31 1.446.46 2.284.46 1.207 0 2.164-.27 2.873-.799.708-.538 1.067-1.277 1.067-2.214 0-.848-.289-1.556-.878-2.125-.578-.568-1.506-1.037-2.783-1.426-.688-.21-1.217-.429-1.576-.668-.359-.24-.538-.539-.538-.888 0-.38.149-.678.459-.918.299-.23.728-.349 1.276-.349.569 0 1.008.14 1.317.42.309.278.469.657.469 1.156h2.234a3.09 3.09 0 0 0-.509-1.745 3.328 3.328 0 0 0-1.416-1.187c-.609-.28-1.297-.42-2.075-.42-.768 0-1.466.13-2.084.39-.619.26-1.098.618-1.427 1.077a2.647 2.647 0 0 0-.498 1.576c0 1.127.618 2.025 1.855 2.693.449.24 1.067.489 1.845.738.778.25 1.317.489 1.616.718.299.23.449.549.449.978 0 .389-.15.688-.449.907-.299.22-.708.31-1.237.31zm9.566 1.616 1.765-7.272 1.765 7.272h2.255l2.413-10.863h-2.234l-1.466 7.73-1.785-7.73h-1.896l-1.795 7.72-1.466-7.72h-2.234l2.413 10.863h2.265zm11.45-2.235h3.93l.758 2.235h2.384l-4.07-10.863h-2.074l-4.05 10.863h2.384l.738-2.235zm1.955-5.885 1.367 4.07h-2.713l1.346-4.07zm8 8.12h2.234V3.102h3.331V1.286h-8.847v1.816h3.282v9.046zm14.283-1.796h-5.047V7.441h4.299V5.685h-4.299V3.092h5.027V1.286h-7.271V12.15h7.281v-1.796h.01zm3.701-2.184h1.785l2.035 3.98h2.404v-.1l-2.354-4.439c.648-.29 1.137-.688 1.456-1.187.319-.499.479-1.117.479-1.855 0-1.047-.349-1.855-1.048-2.424-.698-.568-1.685-.858-2.972-.858h-4.04V12.15h2.235v-3.98h.02zm0-5.067h1.795c.598 0 1.047.15 1.336.439.29.289.439.698.439 1.206 0 .5-.149.898-.458 1.187-.31.29-.749.43-1.307.43h-1.805V3.101zm-79.945 26.322h2.234V18.562h-2.234v10.862zm11.071-3.7-4.369-7.162h-2.234v10.862h2.234v-7.151l4.359 7.151h2.234V18.562h-2.224v7.162zm11.421-5.347v-1.815h-7.072v10.862h2.234v-4.438h4.299V23.18h-4.299v-2.803h4.838zm1.705.559c-.389.818-.578 1.756-.578 2.823v.538c0 1.048.199 1.965.588 2.773.389.808.938 1.427 1.646 1.855.708.43 1.506.649 2.414.649.908 0 1.716-.22 2.424-.659.708-.438 1.247-1.057 1.626-1.865.379-.808.568-1.745.568-2.813v-.488c0-1.067-.189-2.005-.578-2.813-.389-.818-.928-1.436-1.636-1.875-.708-.44-1.506-.649-2.414-.649-.908 0-1.706.22-2.414.649-.718.439-1.267 1.067-1.646 1.875zm1.686 2.773c0-1.127.21-1.985.619-2.573.409-.589.987-.878 1.735-.878.758 0 1.337.299 1.746.887.409.589.608 1.457.608 2.594v.528c-.01 1.128-.209 1.985-.608 2.584-.399.588-.978.887-1.736.887-.768 0-1.356-.309-1.765-.917-.409-.609-.609-1.476-.609-2.584v-.528h.01zm16.338-.01c.319-.499.479-1.117.479-1.855 0-1.048-.349-1.856-1.047-2.424-.699-.569-1.686-.858-2.973-.858h-4.039v10.862h2.234v-3.98h1.785l2.035 3.98h2.404v-.1l-2.354-4.438c.668-.3 1.157-.688 1.476-1.187zm-2.214-.489c-.309.29-.748.429-1.307.429h-1.805v-3.262h1.795c.599 0 1.048.15 1.337.44.289.288.439.698.439 1.206 0 .509-.16.898-.459 1.187zm13.745 6.214h2.244V18.562h-2.943l-2.772 7.88-2.793-7.88h-2.923v10.862h2.235v-2.972l-.22-5.117 2.923 8.09h1.536l2.932-8.1-.219 5.127v2.972zm11.38 0h2.384l-4.069-10.862h-2.075l-4.049 10.862h2.383l.748-2.234h3.93l.748 2.234zm-4.079-4.05 1.347-4.069 1.366 4.07h-2.713zm11.58 4.05v-9.057h3.332v-1.815h-8.848v1.815h3.282v9.057h2.234zm7.142-10.862h-2.234v10.862h2.234V18.562zm6.543 11.012c.908 0 1.716-.22 2.424-.659.708-.438 1.247-1.057 1.626-1.865.379-.808.568-1.745.568-2.813v-.488c0-1.067-.189-2.005-.578-2.813-.389-.818-.928-1.436-1.636-1.875-.708-.44-1.506-.649-2.414-.649-.907 0-1.705.22-2.414.649-.708.439-1.246 1.057-1.635 1.875-.389.818-.579 1.756-.579 2.823v.538c0 1.048.2 1.965.589 2.773.389.808.937 1.427 1.645 1.855.699.44 1.506.649 2.404.649zm-2.374-5.865c0-1.127.21-1.985.619-2.573.409-.589.987-.878 1.735-.878.758 0 1.337.299 1.746.887.409.589.608 1.457.608 2.594v.528c-.01 1.128-.209 1.985-.608 2.584-.399.588-.978.887-1.736.887-.768 0-1.356-.309-1.765-.917-.409-.609-.609-1.476-.609-2.584v-.528h.01zm15.371-5.147v7.162l-4.369-7.162h-2.234v10.862h2.234v-7.151l4.359 7.151H275V18.562h-2.224zm-96.882 19.26c.3-.229.728-.348 1.277-.348.569 0 1.007.14 1.317.419.309.279.468.658.468 1.157h2.235a3.09 3.09 0 0 0-.509-1.746 3.328 3.328 0 0 0-1.416-1.187c-.609-.28-1.297-.419-2.075-.419-.768 0-1.466.13-2.085.39-.618.258-1.097.617-1.426 1.076a2.648 2.648 0 0 0-.499 1.576c0 1.127.619 2.025 1.855 2.693.449.24 1.068.49 1.846.739s1.316.488 1.616.718c.299.23.448.548.448.977 0 .39-.149.688-.448.908-.3.22-.719.329-1.247.329-1.437 0-2.145-.599-2.145-1.795h-2.244c0 .698.18 1.316.539 1.855.359.529.887.947 1.576 1.257.688.309 1.446.458 2.284.458 1.207 0 2.164-.269 2.872-.797.709-.54 1.068-1.277 1.068-2.215 0-.848-.29-1.556-.878-2.114-.579-.569-1.506-1.038-2.783-1.427-.688-.21-1.217-.429-1.576-.668-.359-.24-.529-.539-.529-.888 0-.409.15-.718.459-.947zm10.723 2.913-2.244-4.897h-2.454l3.571 6.922v3.94h2.274v-3.94l3.571-6.922h-2.444l-2.274 4.897zm9.675 4.349c-1.436 0-2.145-.598-2.145-1.795h-2.244c0 .698.18 1.316.539 1.855.359.529.888.948 1.576 1.257.688.309 1.446.458 2.284.458 1.207 0 2.164-.269 2.873-.797.708-.54 1.067-1.277 1.067-2.215 0-.848-.289-1.556-.878-2.114-.578-.569-1.506-1.038-2.783-1.427-.688-.21-1.217-.429-1.576-.668-.359-.24-.538-.539-.538-.888 0-.379.149-.678.458-.917.3-.23.729-.35 1.277-.35.569 0 1.008.14 1.317.42.309.279.469.658.469 1.157h2.234a3.09 3.09 0 0 0-.509-1.746 3.328 3.328 0 0 0-1.416-1.187c-.609-.28-1.297-.419-2.075-.419-.768 0-1.466.13-2.084.39-.619.258-1.098.617-1.427 1.076a2.648 2.648 0 0 0-.499 1.576c0 1.127.619 2.025 1.856 2.693.449.24 1.067.49 1.845.739s1.317.488 1.616.718c.299.23.449.548.449.977 0 .39-.15.688-.449.908-.289.2-.698.299-1.237.299zm8.229 1.626h2.234v-9.057h3.332v-1.815h-8.848v1.815h3.282v9.057zm14.283-1.806h-5.047v-2.912h4.299v-1.755h-4.299v-2.594h5.027v-1.815h-7.271V46.69h7.281v-1.785h.01zm7.182-1.186-2.793-7.88h-2.923V46.7h2.235v-2.973l-.22-5.116 2.923 8.089h1.536l2.932-8.1-.219 5.127V46.7h2.244V35.838h-2.942l-2.773 7.88zm11.251 2.992h2.234V42.27h4.299v-1.805h-4.299v-2.803h4.838v-1.815h-7.072V46.71zm15.241-10.364c-.708-.438-1.506-.648-2.414-.648-.908 0-1.706.22-2.414.648-.708.44-1.247 1.058-1.636 1.876-.389.817-.578 1.755-.578 2.822v.539c0 1.047.199 1.965.588 2.773.389.808.938 1.426 1.646 1.855.708.43 1.506.648 2.414.648.908 0 1.716-.219 2.424-.658.708-.439 1.247-1.057 1.626-1.865.379-.808.568-1.746.568-2.813v-.489c0-1.067-.189-2.004-.578-2.812-.399-.818-.938-1.447-1.646-1.876zm-.05 5.207c-.01 1.127-.209 1.985-.608 2.584-.399.588-.978.887-1.736.887-.768 0-1.357-.309-1.765-.917-.409-.609-.609-1.477-.609-2.584v-.529c0-1.127.21-1.984.619-2.573.408-.588.987-.878 1.735-.878.758 0 1.337.3 1.746.888.409.589.608 1.456.608 2.594v.528h.01zm11.62-.568c.319-.5.479-1.118.479-1.856 0-1.047-.349-1.855-1.047-2.423-.699-.569-1.686-.858-2.973-.858h-4.039V46.71h2.234v-3.98h1.785l2.035 3.98h2.404v-.1l-2.354-4.438c.668-.3 1.157-.699 1.476-1.187zm-2.224-.5c-.309.29-.748.43-1.307.43h-1.805v-3.262h1.795c.599 0 1.048.15 1.337.439.289.29.439.698.439 1.207.01.509-.15.898-.459 1.187zm-86.269 18.793h4.299v-1.756h-4.299V54.93h5.027v-1.816h-7.271v10.863h7.281V62.18h-5.037v-2.902zm12.488 1.077c-.02 1.327-.658 1.985-1.915 1.985-.598 0-1.077-.16-1.416-.489-.339-.33-.509-.848-.509-1.556v-7.172h-2.234v7.242c.02 1.177.399 2.094 1.137 2.773.748.668 1.755 1.007 3.022 1.007 1.287 0 2.304-.349 3.052-1.037.748-.688 1.117-1.636 1.117-2.823v-7.162h-2.244v7.232h-.01zm11.81-2.095c.319-.498.479-1.117.479-1.855 0-1.047-.35-1.855-1.048-2.424-.698-.568-1.685-.858-2.972-.858h-4.04v10.863h2.235v-3.98h1.785l2.035 3.98h2.404v-.1l-2.354-4.439c.668-.299 1.157-.698 1.476-1.187zm-2.214-.498c-.31.289-.749.428-1.307.428h-1.805V54.93h1.795c.598 0 1.047.15 1.336.439.29.289.439.698.439 1.207 0 .508-.149.907-.458 1.186zm11.271-4.14c-.709-.439-1.507-.648-2.414-.648-.908 0-1.706.22-2.414.648-.708.439-1.247 1.057-1.636 1.875-.389.818-.578 1.756-.578 2.823v.539c0 1.047.199 1.965.588 2.773.389.808.938 1.426 1.646 1.855.708.429 1.506.648 2.414.648.907 0 1.715-.22 2.424-.658.708-.439 1.246-1.057 1.625-1.865s.569-1.746.569-2.813v-.489c0-1.067-.19-2.005-.579-2.813-.399-.818-.947-1.436-1.645-1.875zm-.06 5.217c-.01 1.127-.21 1.985-.609 2.583-.399.599-.977.888-1.735.888-.768 0-1.357-.31-1.766-.918-.409-.608-.608-1.476-.608-2.583v-.529c0-1.127.209-1.985.618-2.573.409-.589.988-.878 1.736-.878.758 0 1.336.3 1.745.888.409.588.609 1.456.609 2.593v.529h.01zm10.443-5.267c-.618-.299-1.337-.449-2.154-.449h-4.24v10.863h2.235v-3.83h1.965c1.286 0 2.294-.31 3.022-.918.728-.619 1.097-1.456 1.097-2.524 0-.698-.17-1.326-.499-1.875a3.214 3.214 0 0 0-1.426-1.267zm-.798 4.35c-.309.278-.758.418-1.356.418h-2.005V54.93h2.054c.549.01.988.18 1.297.508.309.33.469.759.469 1.287.01.529-.15.928-.459 1.197zm6.663 1.356h4.299v-1.756h-4.299V54.93h5.027v-1.816h-7.271v10.863h7.281V62.18h-5.047v-2.902h.01zM14.109 64.285h4.847V58.21h5.297v-3.65h-5.297v-2.643h6.893v-3.87h-11.74v16.238zm27.22-8.977c.379-.718.568-1.546.568-2.484 0-1.436-.518-2.593-1.556-3.47-1.037-.879-2.483-1.318-4.358-1.318h-8.479v16.239h4.988V58.06h1.576l2.373 6.214h5.526l-2.942-7.082c1.157-.539 1.925-1.167 2.304-1.885zm-5.197-1.097c-.379.259-.888.389-1.506.389h-2.124v-3.102h2.294c1.276 0 1.915.518 1.915 1.556-.01.508-.2.887-.579 1.157zm7.69 10.074h12.22v-3.88H48.71v-2.653h5.925V54.15H48.71v-2.354h7.331v-3.75H43.822v16.238zM68.23 54.68c-.818-.32-2.195-.679-4.14-1.088-.708-.15-1.187-.309-1.426-.478a.793.793 0 0 1-.369-.699c0-.678.539-1.007 1.626-1.007 1.307 0 2.174.538 2.603 1.626l4.13-1.247c-1.068-2.653-3.252-3.99-6.554-3.99-2.184 0-3.85.509-5.017 1.526-1.157 1.018-1.745 2.284-1.745 3.82 0 1.187.409 2.225 1.217 3.102.808.878 2.633 1.596 5.486 2.145.748.15 1.266.32 1.556.519.289.19.439.468.439.818 0 .668-.629.997-1.876.997-1.606 0-2.613-.658-3.002-1.965l-4.628.828c.928 3.301 3.371 4.947 7.331 4.947 2.164 0 3.91-.509 5.247-1.526 1.336-1.017 1.995-2.354 1.995-3.99 0-1.037-.27-1.945-.818-2.713-.559-.768-1.237-1.306-2.055-1.626zm13.136-.659h-3.81v-5.974h-4.987v16.238h4.987V57.97h3.81v6.314h4.987V48.047h-4.987v5.974zm24.547-5.974-2.274 9.366-2.414-9.366h-3.91l-2.214 9.346-2.274-9.346h-4.688l4.319 16.238h4.368l2.145-8.957 2.274 8.957h4.189l4.289-16.238h-3.81zm8.259 0-5.017 16.238h4.049l.978-3.202h4.349l.917 3.202h5.087l-5.096-16.238h-5.267zm.858 9.495 1.316-4.708 1.317 4.708h-2.633zm8.468-5.605h3.371v12.348h4.728V51.937h3.372v-3.89h-11.461v3.89h-.01zm12.468 12.348h12.219v-3.88h-7.331v-2.653h5.924V54.15h-5.924v-2.354h7.331v-3.75h-12.219v16.238zm25.884-7.082c1.157-.549 1.925-1.177 2.304-1.895.379-.718.568-1.546.568-2.484 0-1.436-.518-2.593-1.556-3.47-1.037-.879-2.483-1.318-4.358-1.318h-8.479v16.239h4.988V58.06h1.575l2.374 6.214h5.526l-2.942-7.072zm-2.893-2.992c-.379.259-.888.389-1.506.389h-2.125v-3.102h2.295c1.276 0 1.915.518 1.915 1.556 0 .508-.19.887-.579 1.157zM164.822 1.396V11.92h-20.577v6.613h16.637v10.124h-16.637v7.451h20.577V46.99H130.52V1.396h34.302zM81.067 46.99H67.073V1.395h13.994V46.99zM38.756 1.396l6.762 26.293 6.394-26.293h10.712L50.526 46.99h-11.76l-6.374-25.145-6.025 25.145H14.11L2 1.396h13.166L21.55 27.64l6.214-26.243h10.992zM105.598 17.173c5.325 1.115 9.094 2.095 11.333 2.966 2.24.87 4.097 2.34 5.626 4.435 1.502 2.095 2.239 4.572 2.239 7.402 0 4.462-1.802 8.109-5.462 10.884-3.659 2.776-8.438 4.163-14.364 4.163-10.841 0-17.532-4.49-20.072-13.496l12.672-2.259c1.065 3.565 3.823 5.36 8.219 5.36 3.414 0 5.134-.897 5.134-2.72 0-.953-.409-1.715-1.201-2.232-.792-.544-2.212-1.006-4.26-1.415-7.81-1.496-12.808-3.456-15.02-5.85-2.212-2.395-3.332-5.225-3.332-8.463 0-4.19 1.612-7.646 4.78-10.422 3.195-2.775 7.755-4.163 13.736-4.163 9.039 0 15.019 3.646 17.941 10.884l-11.305 3.402c-1.175-2.966-3.551-4.436-7.128-4.436-2.977 0-4.451.898-4.451 2.749 0 .816.327 1.442 1.01 1.905.656.462 1.966.898 3.905 1.306z" fill="#00B4D5"/><path fill-rule="evenodd" clip-rule="evenodd" d="M69.355 29.457v-2.452c.953.157 2.87.402 4.654.402 1.799 0 3.851-.31 4.877-.506v2.562c-.758-.155-2.49-.393-4.877-.393-2.357 0-3.96.232-4.654.387zm4.654-2.493c1.345 0 2.843-.178 3.924-.348a16.76 16.76 0 0 0-.34-.041c-.82-.092-1.994-.165-3.584-.165s-2.725.073-3.498.165c-.208.024-.388.05-.544.075 1.02.146 2.579.314 4.042.314zm0-.998c-1.602 0-2.756.075-3.55.168a9.87 9.87 0 0 0-.936.15c-.225.049-.39.1-.49.15l-.122.06v8.344c.037 1.517.132 3.937.295 6.266.162 2.322.394 4.579.71 5.755l.045.164h8.206l.046-.161c.266-.952.85-4.662 1.116-12.021v-8.36l-.14-.055c-.214-.086-.716-.2-1.548-.292-.839-.093-2.03-.168-3.632-.168zm-4.654 3.769c.501.28 2.218.878 4.88.878s4.228-.6 4.65-.871v.289c-.689.339-2.259.812-4.65.812-2.447 0-4.145-.495-4.88-.83v-.278zm.516 7.81c.15 2.7.38 6.838.814 7.705.221.444 2.105.665 2.992.333.383-.144.136-.342-.32-.707-.538-.43-1.366-1.094-1.786-2.175-.383-.984-.852-3.088-1.213-4.708-.37-1.663-.627-2.815-.56-1.72.022.362.046.795.073 1.273zM35.579 34.416l3.187 12.573h10.386c.315-1.281.836-3.512-1.048-6.837-.49-.864-1.092-1.648-1.666-2.397-1.293-1.684-2.447-3.189-1.88-5.028.886-2.882 2.718-4.876 3.213-4.876.086 0 .104.064.14.189.056.198.155.548.636 1.03.776.775 4.11 3.127 4.544 3.214.508.101.21-.48.042-.805l-.042-.082c-.3-.5-.741-1.133-1.143-1.708-.486-.698-.914-1.312-.963-1.506-.07-.285.086-.615.237-.932.085-.177.167-.35.207-.509.005-.023.012-.048.02-.076.132-.513.477-1.848-.575-2.584-.999-.699-2.809-.588-4.21.334l-.427.317-.719 2.956-.471-1.833c-1.737 1.95-3.154 3.88-3.482 6.87-.262 2.395.46 5.08 1.678 7.155.693 1.18 1.878 3.197.871 3.929-1.219.886-2.327-1.441-2.881-2.771l-.001-.002c-.556-1.333-2.332-5.596-5.653-6.62zm14.713-7.295a.332.332 0 1 1-.665 0 .332.332 0 0 1 .665 0zm-26.57 19.868h2.646l3.125-13.043c-.15-.037-.673-.044-1.116.222-.554.332-.332.665.332.997.222.11.222.665-.554.333-.241-.104-.429-.207-.586-.294-.349-.192-.55-.302-.854-.15-.296.148.098.493.492.838.197.172.394.344.505.492.426.568 0 .998-.554.554-.554-.443-.96-.674-1.44-.554-.444.111-.555.665.11 1.22.963.802 1.219 1.773.11 1.883-2.866.287-3.213 1.552-3.102 3.103.1 1.402 2.008 2.08 3.03 2.443.11.039.209.074.294.106.665.333.111.665-.997.665s-1.44-.332-1.663-.554c-.046-.046-.092-.102-.136-.155-.168-.203-.307-.37-.307.155 0 .532.444 1.381.665 1.74zM20.287 58.21c-2.214-.664-4.04-1.294-5.35-1.802l-.161.414a69.4 69.4 0 0 0 4.18 1.444v-.055h1.33zm7.218 1.905v.455c1.588.363 3.258.711 4.987 1.029v-.451c-1.73-.319-3.4-.668-4.987-1.033zm7.933 1.534.183.477a98.56 98.56 0 0 0 5.75.715l-.192-.464a98.68 98.68 0 0 1-5.74-.728zm8.385.943v.444c1.66.109 3.33.168 4.993.168 2.662 0 5.05-.03 7.225-.091v-.444a254.81 254.81 0 0 1-7.225.092 76.24 76.24 0 0 1-4.993-.169zm14.381.002c.15.15.307.291.472.424 4.624-.206 8.24-.588 11.574-1.176.115-.163.218-.332.31-.506-3.526.643-7.346 1.05-12.356 1.258zM72.57 60.94v.453c1.66-.351 3.29-.758 4.987-1.224v-.46c-1.701.47-3.33.878-4.987 1.231zm8.797-2.336v.463c1.37-.41 2.817-.856 4.378-1.337l.61-.187v-.464l-.741.228h-.001c-1.513.466-2.916.898-4.246 1.297zm8.854-2.734.114.43c.638-.212 1.313-.441 2.027-.684.676-.23 1.386-.47 2.132-.72l-.105-.432c-.762.254-1.487.5-2.175.734-.702.239-1.366.464-1.993.672zm5.694-1.908-.12.505c1.962-.638 4.15-1.31 6.583-1.95l-.111-.43c-2.34.616-4.451 1.26-6.352 1.875zm9.19-2.579-.118.483a97.633 97.633 0 0 1 3.952-.843l.125-.475a97.797 97.797 0 0 0-3.959.835zm8.529-1.589-.145.468c2.026-.29 4.166-.53 6.424-.705l-.136-.434c-2.154.169-4.201.398-6.143.671zm9.875-.897v.444c1.515-.065 3.079-.1 4.694-.1 2.256 0 4.523.099 6.767.274v-.445a87.527 87.527 0 0 0-6.767-.272c-1.614 0-3.178.035-4.694.1zm12.458.256v.445c4.247.375 8.395 1.014 12.219 1.77v-.452c-3.826-.753-7.973-1.39-12.219-1.763zm14.364 2.204v.453c1.757.378 3.43.776 4.997 1.178v-.458c-1.568-.4-3.242-.797-4.997-1.173zm9.096 2.294a1.223 1.223 0 0 1-.259.386 93.987 93.987 0 0 1 4.827 1.536 2.53 2.53 0 0 0 .225-.391 93.597 93.597 0 0 0-4.793-1.531zM152.963 11.101c.146.18.229.444.265.818h-7.27c.037-.374.12-.638.266-.818.215-.264.54-.318.931-.318h.548c-.013-.514.163-.974.391-1.344.229-.37.513-.654.724-.817V8.12a2.66 2.66 0 0 1-1.875-2.323h-1.672c-.295.443-1.175 1.33-2.327 1.33-1.441 0-2.217-.776-2.217-1.995 0-1.22 1.108-1.773 2.217-1.773.886 0 1.921.739 2.327 1.108h1.904a2.66 2.66 0 0 1 5.041.665h1.7c.295-.443 1.174-1.33 2.327-1.33 1.441 0 2.216.776 2.216 1.995s-1.108 1.773-2.216 1.773c-.887 0-1.921-.739-2.327-1.108h-1.814a2.666 2.666 0 0 1-1.733 1.658v.503c.211.163.495.448.723.817.228.37.405.83.392 1.344h.548c.391 0 .716.054.931.318zm-8.718 4.226h-5.069c-3.281 0-4.396 1.626-4.544 2.438v9.531c-.554 0-.998.155-.998.776 0 .62.444.776 1.109.776h6.206c.554 0 .886-.244.886-.776s-.332-.776-.886-.776V22.42h19.934v-3.888h-16.638v-3.205zm-8.616 22.475c0-1.697 2.197-6.144 2.42-6.59.008-.017.028-.017.037 0 .222.446 2.42 4.893 2.42 6.59 0 1.788-1.092 3.237-2.439 3.237-1.346 0-2.438-1.45-2.438-3.237zm29.194-26.124v.241h-2.506c.303-.612.75-1.247 1.241-1.247.441 0 .906.487 1.265 1.006zm-25.785 28.073c.169.072.403-.098.523-.38.121-.28.081-.567-.087-.64-.169-.072-.404.098-.524.38-.12.28-.081.567.088.64zM103.822 29.932a77.553 77.553 0 0 1-1.552-.344v-8.72h-2.105v-1.551h2.105v-.997h1.552v.997h10.653c.96.284 1.778.558 2.457.822.536.209 1.051.452 1.545.73h-3.872l-1.347 2.456c.867.138 1.536 1.02 1.536 2.087 0 .564-.187 1.075-.49 1.453l.471 8.854h2.568l-.044.334.011.02.017.032.031.058.09.173c.126.246.276.57.362.892.085.319.115.663-.03.932-.134.248-.399.401-.816.434l-.175 1.337h5.319V23.989a11.522 11.522 0 0 1 1.552 2.478v11.115c-.901 2.01-2.34 3.772-4.325 5.278-3.66 2.776-8.439 4.164-14.365 4.164-.93 0-1.83-.034-2.7-.1V42.59h-1.662v-2.66h1.662v-3.787c.484.153 1.001.27 1.552.35v3.438h5.589l.847-4.415c.111-.104.207-.215.29-.334l-.912 4.749h3.274l-.554-4.212h2.197l-.459-8.63c-.298.27-.67.43-1.074.43-.345 0-.667-.118-.939-.32l-1.195 6.224a2.588 2.588 0 0 0-.131-.495l1.132-5.896c-.391-.386-.64-.968-.64-1.62 0-1.076.681-1.964 1.559-2.09l-1.109-2.453h-7.875v9.063zm8.119-9.063 1.089 2.411 1.322-2.412h-2.411zm5.053 17.5c.338-.036.508-.163.591-.315.103-.19.092-.463.011-.768-.08-.3-.221-.608-.345-.85l-.002-.004-.255 1.937z" fill="#99E1EF"/></svg>