<svg width="657" height="156" viewBox="0 0 657 156" fill="none" xmlns="http://www.w3.org/2000/svg">
<path d="M391.573 0.079834V25.3867H342.087V41.2905H382.098V65.6379H342.087V83.5566H391.573V109.727H309.08V0.079834H391.573Z" fill="#00B4D5"/>
<path d="M190.15 109.727H156.495V0.079834H190.15V109.727Z" fill="#00B4D5"/>
<path d="M88.3942 0.079834L104.658 63.3111L120.034 0.079834H145.796L116.7 109.727H88.4182L73.0901 49.2544L58.6016 109.727H29.1209L0 0.079834H31.6636L47.0156 63.1911L61.9599 0.079834H88.3942Z" fill="#00B4D5"/>
<path d="M249.144 38.0211C261.951 40.7042 271.014 43.0601 276.399 45.1542C281.785 47.2483 286.25 50.7821 289.928 55.8211C293.54 60.86 295.314 66.8151 295.314 73.621C295.314 84.3533 290.979 93.1224 282.179 99.7973C273.378 106.472 261.885 109.81 247.634 109.81C221.561 109.81 205.471 99.012 199.363 77.3511L229.836 71.9195C232.398 80.4923 239.031 84.8114 249.604 84.8114C257.813 84.8114 261.951 82.6518 261.951 78.2673C261.951 75.9769 260.966 74.1445 259.061 72.9011C257.157 71.5923 253.742 70.4798 248.816 69.4982C230.033 65.899 218.015 61.1872 212.695 55.4284C207.376 49.6696 204.683 42.8638 204.683 35.0763C204.683 24.9984 208.558 16.6874 216.176 10.0124C223.86 3.33748 234.827 0 249.21 0C270.948 0 285.331 8.76908 292.358 26.1764L265.169 34.3565C262.345 27.2234 256.631 23.6896 248.028 23.6896C240.87 23.6896 237.323 25.8491 237.323 30.2991C237.323 32.2623 238.111 33.7675 239.753 34.88C241.329 35.9925 244.482 37.0395 249.144 38.0211Z" fill="#00B4D5"/>
<path d="M29.1201 155.321H40.7781V140.713H53.5155V131.933H40.7781V125.577H57.3535V116.27H29.1201V155.321ZM94.5822 133.733C95.4937 132.005 95.9495 130.014 95.9495 127.76C95.9495 124.305 94.7021 121.523 92.2074 119.412C89.7127 117.301 86.2345 116.246 81.7249 116.246H61.3354V155.297H73.3292V140.353H77.1193L82.8283 155.297H96.1174L89.0411 138.266C91.8236 136.971 93.6707 135.46 94.5822 133.733ZM82.0847 131.094C81.1732 131.718 79.9498 132.029 78.4626 132.029H73.3532V124.569H78.8703C81.9408 124.569 83.476 125.817 83.476 128.311C83.452 129.535 82.9962 130.446 82.0847 131.094ZM100.579 155.321H129.964V145.99H112.333V139.61H126.582V130.95H112.333V125.289H129.964V116.27H100.579V155.321ZM159.277 132.221C157.31 131.454 153.999 130.59 149.322 129.607C147.619 129.247 146.467 128.863 145.892 128.455C145.292 128.048 145.004 127.496 145.004 126.776C145.004 125.145 146.299 124.353 148.914 124.353C152.056 124.353 154.143 125.649 155.175 128.263L165.106 125.265C162.539 118.884 157.286 115.67 149.346 115.67C144.093 115.67 140.087 116.893 137.28 119.34C134.498 121.787 133.082 124.833 133.082 128.527C133.082 131.382 134.066 133.876 136.009 135.987C137.952 138.098 142.341 139.825 149.202 141.145C151.001 141.505 152.248 141.912 152.944 142.392C153.64 142.848 153.999 143.519 153.999 144.359C153.999 145.966 152.488 146.758 149.49 146.758C145.628 146.758 143.205 145.175 142.27 142.032L131.139 144.023C133.37 151.963 139.247 155.921 148.77 155.921C153.975 155.921 158.173 154.698 161.388 152.251C164.602 149.804 166.185 146.59 166.185 142.656C166.185 140.161 165.537 137.978 164.218 136.131C162.875 134.284 161.244 132.989 159.277 132.221ZM190.868 130.638H181.705V116.27H169.711V155.321H181.705V140.137H190.868V155.321H202.862V116.27H190.868V130.638ZM249.902 116.27L244.433 138.794L238.628 116.27H229.224L223.899 138.746L218.43 116.27H207.156L217.542 155.321H228.049L233.206 133.781L238.676 155.321H248.75L259.065 116.27H249.902ZM269.763 116.27L257.698 155.321H267.437L269.787 147.621H280.246L282.453 155.321H294.687L282.429 116.27H269.763ZM271.826 139.106L274.993 127.784L278.159 139.106H271.826ZM292.192 125.625H300.3V155.321H311.67V125.625H319.778V116.27H292.216V125.625H292.192ZM322.176 155.321H351.561V145.99H333.93V139.61H348.179V130.95H333.93V125.289H351.561V116.27H322.176V155.321ZM384.424 138.29C387.207 136.971 389.054 135.46 389.965 133.733C390.877 132.005 391.332 130.014 391.332 127.76C391.332 124.305 390.085 121.523 387.59 119.412C385.096 117.301 381.618 116.246 377.108 116.246H356.718V155.297H368.712V140.353H372.502L378.211 155.297H391.5L384.424 138.29ZM377.468 131.094C376.556 131.718 375.333 132.029 373.846 132.029H368.736V124.569H374.253C377.324 124.569 378.859 125.817 378.859 128.311C378.859 129.535 378.403 130.446 377.468 131.094Z" fill="#00B4D5"/>
<path fill-rule="evenodd" clip-rule="evenodd" d="M161.982 67.5651V61.668C164.274 62.0453 168.883 62.6343 173.176 62.6343C177.501 62.6343 182.437 61.8892 184.903 61.4181V67.5786C183.081 67.2043 178.915 66.6322 173.176 66.6322C167.506 66.6322 163.651 67.1907 161.982 67.5651ZM173.176 61.5682C176.41 61.5682 180.011 61.1403 182.613 60.7319C182.358 60.6981 182.085 60.6647 181.793 60.6321C179.821 60.4125 176.998 60.2355 173.176 60.2355C169.353 60.2355 166.621 60.4126 164.763 60.6317C164.264 60.6906 163.829 60.7523 163.454 60.8143C165.907 61.1635 169.656 61.5682 173.176 61.5682ZM173.176 59.1694C169.323 59.1694 166.547 59.3478 164.638 59.5729C163.684 59.6854 162.942 59.8101 162.388 59.9314C161.846 60.0499 161.45 60.172 161.21 60.2918L160.916 60.4392V60.7686V61.0351V80.4917V80.4982L160.916 80.5047C161.005 84.1536 161.232 89.9721 161.623 95.5744C162.014 101.157 162.571 106.585 163.333 109.415L163.439 109.81H163.848H182.771H183.175L183.284 109.421C183.925 107.133 185.329 98.2104 185.969 80.511L185.969 80.5014V80.4917V60.7686V60.4077L185.634 60.2737C185.118 60.0671 183.91 59.7951 181.911 59.5725C179.893 59.3478 177.03 59.1694 173.176 59.1694ZM161.982 68.2317C163.188 68.9036 167.317 70.3426 173.717 70.3426C180.121 70.3426 183.886 68.9016 184.903 68.2484V68.9441C183.245 69.7588 179.47 70.897 173.717 70.897C167.833 70.897 163.749 69.7067 161.982 68.9028V68.2317ZM163.223 87.0166C163.584 93.506 164.138 103.46 165.18 105.545C165.713 106.612 170.244 107.145 172.376 106.345C173.299 105.999 172.703 105.522 171.608 104.645C170.314 103.609 168.323 102.014 167.312 99.4153C166.392 97.0483 165.264 91.988 164.395 88.0928C163.504 84.0928 162.886 81.3214 163.048 83.9566C163.101 84.8258 163.159 85.8668 163.223 87.0166Z" fill="#99E1EF"/>
<path fill-rule="evenodd" clip-rule="evenodd" d="M80.7537 79.4906L88.4177 109.727H113.395C114.154 106.645 115.406 101.281 110.875 93.2848C109.697 91.2053 108.251 89.32 106.87 87.5202L106.87 87.5202L106.869 87.5193L106.869 87.5192C103.761 83.4683 100.986 79.8508 102.347 75.4274C104.479 68.4976 108.884 63.7001 110.076 63.7001C110.282 63.7001 110.326 63.8559 110.41 64.1557C110.546 64.6328 110.784 65.4744 111.942 66.6319C113.807 68.4976 121.824 74.1522 122.869 74.3612C124.09 74.6055 123.372 73.209 122.97 72.4266C122.933 72.3551 122.899 72.2886 122.869 72.229C122.146 71.0244 121.086 69.5039 120.121 68.1204C118.951 66.443 117.922 64.9671 117.805 64.4997C117.634 63.8155 118.012 63.0216 118.375 62.2589L118.375 62.2583L118.376 62.2574C118.578 61.832 118.776 61.4163 118.871 61.0348C118.885 60.9802 118.901 60.9192 118.918 60.8525C119.237 59.6178 120.067 56.4082 117.539 54.6381C115.136 52.9561 110.783 53.2238 107.411 55.4411L106.386 56.2024L104.657 63.311L103.523 58.9026C99.3476 63.5935 95.939 68.236 95.1503 75.4274C94.5188 81.1854 96.2551 87.6428 99.1854 92.6324C100.852 95.4698 103.701 100.32 101.28 102.08C98.3486 104.212 95.6834 98.6154 94.3507 95.417L94.3484 95.4113L94.3482 95.4109C93.0126 92.2056 88.7405 81.9532 80.7537 79.4906ZM116.138 61.9444C116.138 62.386 115.78 62.744 115.338 62.744C114.896 62.744 114.538 62.386 114.538 61.9444C114.538 61.5028 114.896 61.1448 115.338 61.1448C115.78 61.1448 116.138 61.5028 116.138 61.9444ZM52.2401 109.727H58.6021L66.1174 78.3591C65.7561 78.2703 64.5005 78.2526 63.4344 78.8922C62.1017 79.6918 62.6348 80.4914 64.2339 81.291C64.767 81.5575 64.767 82.8901 62.9013 82.0905C62.3209 81.8418 61.8696 81.5931 61.491 81.3845C60.6524 80.9225 60.1709 80.6572 59.4364 81.0245C58.7257 81.3798 59.6734 82.209 60.6211 83.0382C61.0949 83.4528 61.5687 83.8674 61.8352 84.2228C62.8592 85.588 61.8352 86.6215 60.5025 85.5554C59.1699 84.4893 58.194 83.9337 57.0376 84.2228C55.9715 84.4893 55.705 85.822 57.3042 87.1546C59.6207 89.085 60.236 91.4191 57.5707 91.6856C50.6753 92.3751 49.8414 95.417 50.1079 99.1484C50.3486 102.518 54.9373 104.149 57.3947 105.022C57.6582 105.116 57.8972 105.201 58.1037 105.279C59.7029 106.078 58.3702 106.878 55.705 106.878C53.0397 106.878 52.2401 106.078 51.707 105.545C51.5958 105.434 51.4845 105.299 51.3781 105.171C50.9747 104.683 50.6409 104.28 50.6409 105.545C50.6409 106.824 51.707 108.866 52.2401 109.727Z" fill="#99E1EF"/>
<path fill-rule="evenodd" clip-rule="evenodd" d="M43.9782 140.713C38.6549 139.116 34.2611 137.601 31.1099 136.379L30.7246 137.373C33.3061 138.374 36.7137 139.57 40.7785 140.846V140.713H43.9782ZM61.3358 145.293V146.387C65.1552 147.262 69.1712 148.099 73.3296 148.861V147.777C69.1692 147.011 65.1528 146.171 61.3358 145.293ZM80.4164 148.983L80.8544 150.13C85.3645 150.822 89.9955 151.409 94.6849 151.849L94.2217 150.734C89.5382 150.283 84.9154 149.685 80.4164 148.983ZM100.58 151.251V152.319C104.571 152.58 108.586 152.723 112.587 152.723C118.99 152.723 124.735 152.652 129.964 152.503V151.437C124.739 151.585 118.995 151.657 112.587 151.657C108.587 151.657 104.572 151.513 100.58 151.251ZM135.166 151.256C135.525 151.616 135.904 151.956 136.302 152.274C147.42 151.779 156.116 150.861 164.134 149.447C164.411 149.055 164.659 148.649 164.88 148.231C156.402 149.776 147.215 150.756 135.166 151.256ZM169.712 147.275V148.365C173.703 147.52 177.623 146.541 181.705 145.42V144.314C177.614 145.443 173.696 146.426 169.712 147.275ZM190.869 141.658V142.772C194.164 141.783 197.642 140.713 201.397 139.557C201.881 139.408 202.369 139.257 202.863 139.106V137.99C202.262 138.175 201.668 138.358 201.081 138.538L201.079 138.539C197.439 139.659 194.065 140.698 190.869 141.658ZM212.16 135.083L212.434 136.115C213.969 135.607 215.592 135.055 217.309 134.472L217.31 134.472C218.935 133.92 220.643 133.339 222.438 132.741L222.185 131.7C220.351 132.312 218.608 132.904 216.953 133.466C215.265 134.04 213.668 134.582 212.16 135.083ZM225.855 130.493L225.567 131.709C230.283 130.173 235.545 128.558 241.398 127.016L241.131 125.984C235.505 127.465 230.426 129.014 225.855 130.493ZM247.954 124.292L247.673 125.452C250.697 124.741 253.863 124.059 257.176 123.424L257.477 122.282C254.159 122.911 250.986 123.586 247.954 124.292ZM268.466 120.47L268.118 121.596C272.99 120.9 278.136 120.32 283.569 119.9L283.241 118.856C278.06 119.263 273.138 119.813 268.466 120.47ZM292.216 118.313V119.38C295.859 119.224 299.621 119.141 303.504 119.141C308.93 119.141 314.381 119.377 319.778 119.799V118.729C314.381 118.31 308.931 118.074 303.504 118.074C299.622 118.074 295.86 118.158 292.216 118.313ZM322.177 118.928V119.998C332.39 120.9 342.366 122.438 351.562 124.255V123.168C342.361 121.357 332.387 119.825 322.177 118.928ZM356.719 124.229V125.319C360.944 126.228 364.97 127.185 368.737 128.15V127.05C364.966 126.087 360.941 125.134 356.719 124.229ZM378.595 129.745C378.448 130.092 378.241 130.401 377.972 130.674C382.481 131.986 386.402 133.251 389.582 134.368C389.724 134.16 389.852 133.948 389.966 133.733C390.019 133.632 390.071 133.53 390.121 133.427C386.967 132.315 383.075 131.054 378.595 129.745Z" fill="#99E1EF"/>
<path fill-rule="evenodd" clip-rule="evenodd" d="M363.051 23.4195C363.403 23.8519 363.603 24.4876 363.691 25.3867H346.206C346.294 24.4876 346.494 23.8519 346.846 23.4195C347.362 22.7845 348.143 22.6547 349.085 22.6547H350.403C350.371 21.4185 350.795 20.3108 351.343 19.4229C351.893 18.5337 352.576 17.8499 353.083 17.4575V16.2482C350.623 15.4994 348.792 13.3088 348.574 10.6609L344.554 10.6609C343.843 11.7271 341.729 13.8593 338.957 13.8593C335.492 13.8593 333.626 11.9936 333.626 9.06177C333.626 6.12996 336.291 4.79731 338.957 4.79731C341.089 4.79731 343.577 6.57417 344.554 7.4626L349.132 7.4626C350.142 5.26051 352.367 3.7312 354.948 3.7312C358.118 3.7312 360.749 6.03645 361.257 9.06177H365.343C366.054 7.99566 368.168 5.86343 370.94 5.86343C374.405 5.86343 376.271 7.72913 376.271 10.6609C376.271 13.5928 373.605 14.9254 370.94 14.9254C368.808 14.9254 366.32 13.1485 365.343 12.2601H360.981C360.308 14.1656 358.757 15.6567 356.814 16.2482V17.4575C357.321 17.8499 358.004 18.5337 358.553 19.4229C359.102 20.3108 359.526 21.4185 359.494 22.6547H360.812C361.754 22.6547 362.535 22.7845 363.051 23.4195ZM342.087 33.5824H329.895C322.006 33.5824 319.323 37.4915 318.967 39.446V62.3675C317.634 62.3675 316.568 62.7406 316.568 64.2332C316.568 65.7258 317.634 66.0989 319.234 66.0989H334.159C335.492 66.0989 336.291 65.5125 336.291 64.2332C336.291 62.9538 335.492 62.3675 334.159 62.3675V50.6402H382.098V41.2904H342.087V33.5824ZM321.366 87.6329C321.366 83.5518 326.65 72.857 327.186 71.7832C327.205 71.744 327.254 71.744 327.273 71.7832C327.809 72.857 333.093 83.5518 333.093 87.6329C333.093 91.932 330.468 95.417 327.229 95.417C323.991 95.417 321.366 91.932 321.366 87.6329ZM391.574 24.8071V25.3866H385.547C386.276 23.9153 387.352 22.3882 388.531 22.3882C389.593 22.3882 390.71 23.5589 391.574 24.8071ZM329.563 92.3188C329.969 92.4925 330.533 92.0848 330.822 91.4081C331.112 90.7315 331.017 90.0421 330.611 89.8684C330.205 89.6947 329.642 90.1024 329.352 90.779C329.063 91.4557 329.157 92.1451 329.563 92.3188Z" fill="#99E1EF"/>
<path fill-rule="evenodd" clip-rule="evenodd" d="M244.872 68.7053C243.593 68.4354 242.35 68.1599 241.141 67.8786V46.9092H236.077V43.1778H241.141V40.7791H244.872V43.1778H270.493C272.8 43.8619 274.769 44.5201 276.4 45.1544C277.691 45.6563 278.929 46.2409 280.115 46.9092H270.805L267.566 52.8179C269.65 53.1496 271.258 55.2702 271.258 57.8369C271.258 59.1917 270.81 60.4222 270.081 61.3309L271.213 82.624H277.389L277.283 83.4268L277.31 83.4769L277.351 83.5519C277.374 83.5957 277.399 83.6418 277.425 83.6902C277.492 83.8155 277.566 83.9554 277.643 84.1061C277.945 84.6986 278.305 85.4764 278.512 86.2535C278.717 87.019 278.79 87.8464 278.439 88.4938C278.117 89.0891 277.481 89.4588 276.479 89.5378L276.056 92.7521H288.849V54.4139C289.216 54.8692 289.576 55.3383 289.929 55.8213C290.963 57.2641 291.846 58.782 292.581 60.3736V87.1036C290.414 91.9375 286.954 96.1757 282.179 99.7975C273.379 106.472 261.886 109.81 247.634 109.81C245.396 109.81 243.232 109.73 241.141 109.571V99.1488H237.143V92.7521H241.141V83.6424C242.304 84.0104 243.548 84.2917 244.872 84.486V92.7521H258.313L260.351 82.1356C260.616 81.8858 260.849 81.6183 261.048 81.3332L258.856 92.7521H266.727L265.395 82.624H270.68L269.576 61.868C268.859 62.5161 267.964 62.9009 266.994 62.9009C266.164 62.9009 265.39 62.6195 264.735 62.1325L261.86 77.1025C261.793 76.6863 261.688 76.2885 261.546 75.9102L264.269 61.732C263.328 60.8031 262.73 59.403 262.73 57.8369C262.73 55.2477 264.366 53.1124 266.477 52.8096L263.812 46.9092H244.872V68.7053ZM264.397 46.9092L267.017 52.7095L270.197 46.9092H264.397ZM276.55 88.9963C277.364 88.91 277.773 88.6052 277.97 88.24C278.22 87.7796 278.193 87.1245 277.997 86.3908C277.805 85.6687 277.465 84.9306 277.168 84.3486L277.163 84.3388L276.55 88.9963Z" fill="#99E1EF"/>
<path d="M433.388 15.4147H422.869V26.4867H418.328V0.358899H434.931V4.01967H422.869V11.7898H433.388V15.4147Z" fill="#00B4D5"/>
<path d="M448.142 16.4196H443.08V26.4867H438.539V0.358899H447.729C450.745 0.358899 453.072 1.03482 454.711 2.38668C456.351 3.73853 457.171 5.69453 457.171 8.25467C457.171 10.0013 456.746 11.4668 455.896 12.6512C455.058 13.8236 453.886 14.7268 452.378 15.3609L458.247 26.2535V26.4867H453.383L448.142 16.4196ZM443.08 12.7768H447.747C449.279 12.7768 450.475 12.394 451.337 11.6283C452.199 10.8507 452.629 9.79196 452.629 8.45207C452.629 7.05236 452.228 5.96968 451.427 5.20403C450.637 4.43838 449.452 4.04359 447.873 4.01967H443.08V12.7768Z" fill="#00B4D5"/>
<path d="M476.753 14.8225H466.02V22.8619H478.566V26.4867H461.478V0.358899H478.44V4.01967H466.02V11.2335H476.753V14.8225Z" fill="#00B4D5"/>
<path d="M495.923 19.7574C495.923 18.6089 495.516 17.7236 494.702 17.1015C493.901 16.4794 492.447 15.8514 490.341 15.2173C488.235 14.5833 486.559 13.8774 485.315 13.0998C482.934 11.6044 481.743 9.65438 481.743 7.24976C481.743 5.14422 482.599 3.40954 484.31 2.04572C486.033 0.681908 488.265 0 491.005 0C492.824 0 494.445 0.334972 495.869 1.00492C497.293 1.67486 498.412 2.63192 499.226 3.87611C500.039 5.10833 500.446 6.47812 500.446 7.9855H495.923C495.923 6.62168 495.492 5.55695 494.631 4.7913C493.781 4.01369 492.561 3.62488 490.969 3.62488C489.485 3.62488 488.33 3.94191 487.505 4.57596C486.691 5.21001 486.284 6.0953 486.284 7.23181C486.284 8.18888 486.727 8.99042 487.613 9.63643C488.498 10.2705 489.958 10.8926 491.992 11.5027C494.026 12.1009 495.66 12.7888 496.892 13.5664C498.125 14.332 499.028 15.2173 499.603 16.2222C500.177 17.2152 500.464 18.3816 500.464 19.7215C500.464 21.8988 499.627 23.6335 497.951 24.9255C496.288 26.2056 494.026 26.8456 491.166 26.8456C489.276 26.8456 487.535 26.4987 485.943 25.8048C484.364 25.099 483.131 24.13 482.246 22.8977C481.372 21.6655 480.935 20.2299 480.935 18.591H485.477C485.477 20.0744 485.967 21.2229 486.948 22.0364C487.93 22.8499 489.336 23.2566 491.166 23.2566C492.746 23.2566 493.931 22.9396 494.72 22.3056C495.522 21.6595 495.923 20.8102 495.923 19.7574Z" fill="#00B4D5"/>
<path d="M525.198 26.4867H520.675V14.8764H508.99V26.4867H504.449V0.358899H508.99V11.2335H520.675V0.358899H525.198V26.4867Z" fill="#00B4D5"/>
<path d="M551.081 20.0266L555.102 0.358899H559.607L553.576 26.4867H549.232L544.26 7.41126L539.181 26.4867H534.819L528.788 0.358899H533.293L537.35 19.9907L542.34 0.358899H546.145L551.081 20.0266Z" fill="#00B4D5"/>
<path d="M576.767 20.4034H566.643L564.525 26.4867H559.805L569.677 0.358899H573.751L583.641 26.4867H578.903L576.767 20.4034ZM567.918 16.7426H575.492L571.705 5.90389L567.918 16.7426Z" fill="#00B4D5"/>
<path d="M603.35 4.01967H595.201V26.4867H590.695V4.01967H582.618V0.358899H603.35V4.01967Z" fill="#00B4D5"/>
<path d="M622.071 14.8225H611.337V22.8619H623.884V26.4867H606.796V0.358899H623.758V4.01967H611.337V11.2335H622.071V14.8225Z" fill="#00B4D5"/>
<path d="M637.184 16.4196H632.122V26.4867H627.581V0.358899H636.771C639.787 0.358899 642.114 1.03482 643.753 2.38668C645.393 3.73853 646.212 5.69453 646.212 8.25467C646.212 10.0013 645.788 11.4668 644.938 12.6512C644.1 13.8236 642.928 14.7268 641.42 15.3609L647.289 26.2535V26.4867H642.425L637.184 16.4196ZM632.122 12.7768H636.789C638.321 12.7768 639.517 12.394 640.379 11.6283C641.241 10.8507 641.671 9.79196 641.671 8.45207C641.671 7.05236 641.27 5.96968 640.469 5.20403C639.679 4.43838 638.494 4.04359 636.915 4.01967H632.122V12.7768Z" fill="#00B4D5"/>
<path d="M423.121 69.5382H418.597V43.4104H423.121V69.5382Z" fill="#00B4D5"/>
<path d="M449.434 69.5382H444.893L433.244 51.0011V69.5382H428.703V43.4104H433.244L444.929 62.0193V43.4104H449.434V69.5382Z" fill="#00B4D5"/>
<path d="M469.861 58.4662H459.342V69.5382H454.801V43.4104H471.404V47.0711H459.342V54.8413H469.861V58.4662Z" fill="#00B4D5"/>
<path d="M495.869 57.1562C495.869 59.7163 495.426 61.9654 494.541 63.9035C493.655 65.8296 492.387 67.313 490.736 68.3538C489.096 69.3827 487.206 69.8971 485.064 69.8971C482.946 69.8971 481.055 69.3827 479.392 68.3538C477.74 67.313 476.46 65.8355 475.551 63.9214C474.653 62.0073 474.198 59.8001 474.186 57.2997V55.8283C474.186 53.2801 474.635 51.031 475.533 49.081C476.442 47.1309 477.716 45.6415 479.356 44.6127C481.007 43.5719 482.898 43.0515 485.028 43.0515C487.158 43.0515 489.042 43.5659 490.682 44.5947C492.333 45.6116 493.608 47.0831 494.505 49.0092C495.403 50.9233 495.857 53.1545 495.869 55.7026V57.1562ZM491.328 55.7924C491.328 52.8972 490.778 50.6781 489.677 49.1348C488.588 47.5915 487.038 46.8199 485.028 46.8199C483.065 46.8199 481.528 47.5915 480.415 49.1348C479.314 50.6661 478.752 52.8374 478.728 55.6488V57.1562C478.728 60.0274 479.284 62.2466 480.397 63.8138C481.522 65.3809 483.077 66.1645 485.064 66.1645C487.074 66.1645 488.618 65.3989 489.695 63.8676C490.784 62.3363 491.328 60.0991 491.328 57.1562V55.7924Z" fill="#00B4D5"/>
<path d="M509.995 59.4711H504.934V69.5382H500.392V43.4104H509.582C512.598 43.4104 514.925 44.0863 516.565 45.4381C518.204 46.79 519.024 48.746 519.024 51.3061C519.024 53.0528 518.599 54.5183 517.749 55.7026C516.912 56.875 515.739 57.7783 514.231 58.4123L520.101 69.3049V69.5382H515.236L509.995 59.4711ZM504.934 55.8283H509.6C511.132 55.8283 512.329 55.4454 513.19 54.6798C514.052 53.9022 514.483 52.8434 514.483 51.5035C514.483 50.1038 514.082 49.0211 513.28 48.2555C512.49 47.4898 511.306 47.095 509.726 47.0711H504.934V55.8283Z" fill="#00B4D5"/>
<path d="M529.219 43.4104L536.758 63.4369L544.278 43.4104H550.148V69.5382H545.625V60.9246L546.073 49.404L538.355 69.5382H535.106L527.406 49.4219L527.855 60.9246V69.5382H523.332V43.4104H529.219Z" fill="#00B4D5"/>
<path d="M570.484 63.4549H560.361L558.243 69.5382H553.522L563.394 43.4104H567.469L577.359 69.5382H572.62L570.484 63.4549ZM561.635 59.7941H569.21L565.423 48.9553L561.635 59.7941Z" fill="#00B4D5"/>
<path d="M597.067 47.0711H588.918V69.5382H584.413V47.0711H576.336V43.4104H597.067V47.0711Z" fill="#00B4D5"/>
<path d="M605.306 69.5382H600.783V43.4104H605.306V69.5382Z" fill="#00B4D5"/>
<path d="M631.745 57.1562C631.745 59.7163 631.303 61.9654 630.417 63.9035C629.532 65.8296 628.263 67.313 626.612 68.3538C624.972 69.3827 623.082 69.8971 620.94 69.8971C618.822 69.8971 616.931 69.3827 615.268 68.3538C613.617 67.313 612.336 65.8355 611.427 63.9214C610.529 62.0073 610.075 59.8001 610.063 57.2997V55.8283C610.063 53.2801 610.511 51.031 611.409 49.081C612.318 47.1309 613.593 45.6415 615.232 44.6127C616.883 43.5719 618.774 43.0515 620.904 43.0515C623.034 43.0515 624.919 43.5659 626.558 44.5947C628.209 45.6116 629.484 47.0831 630.381 49.0092C631.279 50.9233 631.733 53.1545 631.745 55.7026V57.1562ZM627.204 55.7924C627.204 52.8972 626.654 50.6781 625.553 49.1348C624.464 47.5915 622.914 46.8199 620.904 46.8199C618.942 46.8199 617.404 47.5915 616.291 49.1348C615.19 50.6661 614.628 52.8374 614.604 55.6488V57.1562C614.604 60.0274 615.16 62.2466 616.273 63.8138C617.398 65.3809 618.953 66.1645 620.94 66.1645C622.95 66.1645 624.494 65.3989 625.571 63.8676C626.66 62.3363 627.204 60.0991 627.204 57.1562V55.7924Z" fill="#00B4D5"/>
<path d="M657 69.5382H652.459L640.81 51.0011V69.5382H636.269V43.4104H640.81L652.495 62.0193V43.4104H657V69.5382Z" fill="#00B4D5"/>
<path d="M431.988 105.86C431.988 104.712 431.581 103.827 430.767 103.204C429.965 102.582 428.511 101.954 426.405 101.32C424.299 100.686 422.624 99.9803 421.38 99.2027C418.998 97.7073 417.808 95.7573 417.808 93.3527C417.808 91.2471 418.663 89.5124 420.374 88.1486C422.098 86.7848 424.329 86.1029 427.07 86.1029C428.888 86.1029 430.51 86.4379 431.934 87.1078C433.358 87.7778 434.477 88.7348 435.29 89.979C436.104 91.2112 436.511 92.581 436.511 94.0884H431.988C431.988 92.7246 431.557 91.6599 430.695 90.8942C429.846 90.1166 428.625 89.7278 427.034 89.7278C425.55 89.7278 424.395 90.0448 423.569 90.6789C422.756 91.3129 422.349 92.1982 422.349 93.3347C422.349 94.2918 422.792 95.0933 423.677 95.7393C424.563 96.3734 426.023 96.9955 428.057 97.6056C430.091 98.2038 431.724 98.8917 432.957 99.6693C434.189 100.435 435.093 101.32 435.667 102.325C436.242 103.318 436.529 104.485 436.529 105.824C436.529 108.002 435.691 109.736 434.016 111.028C432.353 112.309 430.091 112.949 427.231 112.949C425.34 112.949 423.599 112.602 422.008 111.908C420.428 111.202 419.196 110.233 418.31 109.001C417.437 107.768 417 106.333 417 104.694H421.541C421.541 106.177 422.032 107.326 423.013 108.139C423.994 108.953 425.4 109.36 427.231 109.36C428.811 109.36 429.995 109.043 430.785 108.408C431.587 107.762 431.988 106.913 431.988 105.86Z" fill="#00B4D5"/>
<path d="M449.039 98.8438L455.053 86.4618H460.078L451.319 102.971V112.59H446.76V102.971L437.983 86.4618H443.026L449.039 98.8438Z" fill="#00B4D5"/>
<path d="M476.287 105.86C476.287 104.712 475.88 103.827 475.066 103.204C474.264 102.582 472.81 101.954 470.704 101.32C468.598 100.686 466.923 99.9803 465.678 99.2027C463.297 97.7073 462.107 95.7573 462.107 93.3527C462.107 91.2471 462.962 89.5124 464.673 88.1486C466.396 86.7848 468.628 86.1029 471.368 86.1029C473.187 86.1029 474.809 86.4379 476.233 87.1078C477.657 87.7778 478.775 88.7348 479.589 89.979C480.403 91.2112 480.81 92.581 480.81 94.0884H476.287C476.287 92.7246 475.856 91.6599 474.994 90.8942C474.145 90.1166 472.924 89.7278 471.333 89.7278C469.849 89.7278 468.694 90.0448 467.868 90.6789C467.055 91.3129 466.648 92.1982 466.648 93.3347C466.648 94.2918 467.09 95.0933 467.976 95.7393C468.861 96.3734 470.321 96.9955 472.356 97.6056C474.39 98.2038 476.023 98.8917 477.256 99.6693C478.488 100.435 479.392 101.32 479.966 102.325C480.541 103.318 480.828 104.485 480.828 105.824C480.828 108.002 479.99 109.736 478.315 111.028C476.651 112.309 474.39 112.949 471.53 112.949C469.639 112.949 467.898 112.602 466.307 111.908C464.727 111.202 463.495 110.233 462.609 109.001C461.736 107.768 461.299 106.333 461.299 104.694H465.84C465.84 106.177 466.331 107.326 467.312 108.139C468.293 108.953 469.699 109.36 471.53 109.36C473.109 109.36 474.294 109.043 475.084 108.408C475.886 107.762 476.287 106.913 476.287 105.86Z" fill="#00B4D5"/>
<path d="M503.695 90.1226H495.546V112.59H491.041V90.1226H482.964V86.4618H503.695V90.1226Z" fill="#00B4D5"/>
<path d="M522.416 100.925H511.683V108.965H524.229V112.59H507.141V86.4618H524.103V90.1226H511.683V97.3364H522.416V100.925Z" fill="#00B4D5"/>
<path d="M533.814 86.4618L541.353 106.488L548.873 86.4618H554.743V112.59H550.22V103.976L550.668 92.4554L542.95 112.59H539.701L532.001 92.4734L532.45 103.976V112.59H527.927V86.4618H533.814Z" fill="#00B4D5"/>
<path d="M584.341 101.518H573.823V112.59H569.282V86.4618H585.885V90.1226H573.823V97.8927H584.341V101.518Z" fill="#00B4D5"/>
<path d="M610.35 100.208C610.35 102.768 609.907 105.017 609.022 106.955C608.136 108.881 606.868 110.364 605.216 111.405C603.577 112.434 601.686 112.949 599.544 112.949C597.426 112.949 595.536 112.434 593.872 111.405C592.221 110.364 590.941 108.887 590.031 106.973C589.134 105.059 588.679 102.852 588.667 100.351V98.8797C588.667 96.3315 589.116 94.0824 590.013 92.1324C590.923 90.1824 592.197 88.693 593.836 87.6641C595.488 86.6233 597.378 86.1029 599.508 86.1029C601.638 86.1029 603.523 86.6173 605.162 87.6462C606.814 88.6631 608.088 90.1345 608.986 92.0606C609.883 93.9748 610.338 96.2059 610.35 98.7541V100.208ZM605.809 98.8438C605.809 95.9487 605.258 93.7295 604.157 92.1862C603.068 90.643 601.519 89.8713 599.508 89.8713C597.546 89.8713 596.008 90.643 594.895 92.1862C593.795 93.7175 593.232 95.8889 593.208 98.7003V100.208C593.208 103.079 593.765 105.298 594.878 106.865C596.002 108.432 597.558 109.216 599.544 109.216C601.555 109.216 603.098 108.45 604.175 106.919C605.264 105.388 605.809 103.151 605.809 100.208V98.8438Z" fill="#00B4D5"/>
<path d="M624.476 102.523H619.414V112.59H614.873V86.4618H624.063C627.079 86.4618 629.406 87.1377 631.045 88.4896C632.685 89.8414 633.504 91.7974 633.504 94.3576C633.504 96.1042 633.08 97.5697 632.23 98.7541C631.392 99.9265 630.22 100.83 628.712 101.464L634.581 112.356V112.59H629.717L624.476 102.523ZM619.414 98.8797H624.081C625.613 98.8797 626.809 98.4969 627.671 97.7312C628.532 96.9536 628.963 95.8949 628.963 94.555C628.963 93.1553 628.562 92.0726 627.761 91.3069C626.971 90.5413 625.786 90.1465 624.207 90.1226H619.414V98.8797Z" fill="#00B4D5"/>
<path d="M433.603 143.977H422.869V152.016H435.416V155.641H418.328V129.513H435.29V133.174H422.869V140.388H433.603V143.977Z" fill="#00B4D5"/>
<path d="M458.23 129.513V146.974C458.23 149.749 457.338 151.95 455.555 153.577C453.784 155.192 451.421 156 448.465 156C445.474 156 443.098 155.204 441.339 153.613C439.58 152.01 438.701 149.791 438.701 146.956V129.513H443.224V146.992C443.224 148.738 443.667 150.072 444.552 150.993C445.438 151.915 446.742 152.375 448.465 152.375C451.959 152.375 453.706 150.533 453.706 146.848V129.513H458.23Z" fill="#00B4D5"/>
<path d="M472.697 145.574H467.635V155.641H463.094V129.513H472.284C475.299 129.513 477.627 130.189 479.266 131.541C480.905 132.893 481.725 134.849 481.725 137.409C481.725 139.156 481.3 140.621 480.451 141.806C479.613 142.978 478.44 143.881 476.933 144.515L482.802 155.408V155.641H477.938L472.697 145.574ZM467.635 141.931H472.302C473.833 141.931 475.03 141.548 475.892 140.783C476.753 140.005 477.184 138.946 477.184 137.606C477.184 136.207 476.783 135.124 475.981 134.358C475.192 133.593 474.007 133.198 472.427 133.174H467.635V141.931Z" fill="#00B4D5"/>
<path d="M506.89 143.259C506.89 145.819 506.447 148.068 505.562 150.006C504.676 151.932 503.408 153.416 501.757 154.457C500.117 155.486 498.227 156 496.085 156C493.967 156 492.076 155.486 490.413 154.457C488.761 153.416 487.481 151.938 486.571 150.024C485.674 148.11 485.219 145.903 485.207 143.403V141.931C485.207 139.383 485.656 137.134 486.554 135.184C487.463 133.234 488.737 131.744 490.377 130.716C492.028 129.675 493.919 129.154 496.049 129.154C498.179 129.154 500.063 129.669 501.703 130.698C503.354 131.715 504.628 133.186 505.526 135.112C506.423 137.026 506.878 139.257 506.89 141.806V143.259ZM502.349 141.895C502.349 139 501.798 136.781 500.698 135.238C499.609 133.694 498.059 132.923 496.049 132.923C494.086 132.923 492.549 133.694 491.436 135.238C490.335 136.769 489.772 138.94 489.748 141.752V143.259C489.748 146.13 490.305 148.349 491.418 149.917C492.543 151.484 494.098 152.267 496.085 152.267C498.095 152.267 499.639 151.502 500.716 149.97C501.804 148.439 502.349 146.202 502.349 143.259V141.895Z" fill="#00B4D5"/>
<path d="M515.954 145.933V155.641H511.413V129.513H521.411C524.331 129.513 526.646 130.273 528.357 131.792C530.081 133.312 530.942 135.321 530.942 137.822C530.942 140.382 530.099 142.374 528.411 143.797C526.736 145.221 524.385 145.933 521.357 145.933H515.954ZM515.954 142.29H521.411C523.026 142.29 524.259 141.913 525.109 141.16C525.958 140.394 526.383 139.293 526.383 137.858C526.383 136.446 525.952 135.321 525.091 134.484C524.229 133.635 523.044 133.198 521.537 133.174H515.954V142.29Z" fill="#00B4D5"/>
<path d="M550.202 143.977H539.468V152.016H552.015V155.641H534.927V129.513H551.889V133.174H539.468V140.388H550.202V143.977Z" fill="#00B4D5"/>
</svg>
