<svg width="216" height="70" viewBox="0 0 216 70" fill="none" xmlns="http://www.w3.org/2000/svg">
<path d="M98.5054 67.9271L96.3396 60.8274H85.4492L83.2834 67.9271H76.459L87.0021 37.9775H94.7459L105.33 67.9271H98.5054ZM94.8276 55.5229C92.8253 49.0896 91.6947 45.4513 91.4359 44.6081C91.1907 43.7648 91.0136 43.0983 90.9046 42.6087C90.4551 44.3496 89.1679 48.6544 87.0429 55.5229H94.8276Z" fill="#2F2F2F"/>
<path d="M133.857 52.7296C133.857 57.6395 132.454 61.4002 129.648 64.0117C126.855 66.6231 122.816 67.9288 117.531 67.9288H109.072V38.1016H118.451C123.327 38.1016 127.114 39.3869 129.811 41.9575C132.508 44.5281 133.857 48.1188 133.857 52.7296ZM127.277 52.8928C127.277 46.4866 124.444 43.2836 118.778 43.2836H115.406V62.706H118.124C124.226 62.706 127.277 59.4349 127.277 52.8928V52.8928Z" fill="#2F2F2F"/>
<path d="M157.504 67.9271L155.338 60.8274H144.447L142.281 67.9271H135.457L146 37.9775H153.744L164.328 67.9271H157.504ZM153.826 55.5229C151.823 49.0896 150.693 45.4513 150.434 44.6081C150.189 43.7648 150.012 43.0983 149.903 42.6087C149.453 44.3496 148.166 48.6544 146.041 55.5229H153.826Z" fill="#2F2F2F"/>
<path d="M174.414 52.1379H176.498C178.446 52.1379 179.904 51.7571 180.871 50.9954C181.838 50.2201 182.321 49.0981 182.321 47.6291C182.321 46.1466 181.913 45.0517 181.095 44.3445C180.292 43.6372 179.025 43.2836 177.295 43.2836H174.414V52.1379ZM188.717 47.4047C188.717 50.6146 187.709 53.0696 185.693 54.7697C183.69 56.4698 180.837 57.3199 177.132 57.3199H174.414V67.9288H168.08V38.1016H177.622C181.245 38.1016 183.997 38.8836 185.877 40.4478C187.77 41.9983 188.717 44.3173 188.717 47.4047V47.4047Z" fill="#2F2F2F"/>
<path d="M205.918 67.9288H199.584V43.3652H191.473V38.1016H214.03V43.3652H205.918V67.9288Z" fill="#2F2F2F"/>
<path d="M88.7363 9.69934C86.6483 9.69934 85.0316 10.4856 83.8862 12.0582C82.7408 13.6188 82.1681 15.799 82.1681 18.5986C82.1681 24.4243 84.3575 27.3371 88.7363 27.3371C90.5737 27.3371 92.7989 26.8784 95.4118 25.9611V30.6073C93.2642 31.5008 90.866 31.9476 88.2173 31.9476C84.4112 31.9476 81.4999 30.7979 79.4836 28.4986C77.4672 26.1874 76.459 22.8755 76.459 18.5629C76.459 15.8466 76.9541 13.4699 77.9444 11.4327C78.9347 9.38363 80.3545 7.81703 82.2039 6.73292C84.0652 5.63689 86.2426 5.08887 88.7363 5.08887C91.2776 5.08887 93.8309 5.7024 96.3961 6.92948L94.6065 11.4327C93.6281 10.9681 92.6438 10.5631 91.6535 10.2176C90.6632 9.87208 89.6908 9.69934 88.7363 9.69934V9.69934Z" fill="#2F2F2F"/>
<path d="M105.988 31.59H100.529V3.78418H105.988V31.59Z" fill="#2F2F2F"/>
<path d="M111.467 6.44682C111.467 4.67173 112.457 3.78418 114.438 3.78418C116.418 3.78418 117.409 4.67173 117.409 6.44682C117.409 7.29267 117.158 7.95385 116.657 8.43039C116.168 8.89501 115.428 9.12732 114.438 9.12732C112.457 9.12732 111.467 8.23382 111.467 6.44682V6.44682ZM117.158 31.59H111.699V11.6113H117.158V31.59Z" fill="#2F2F2F"/>
<path d="M140.78 31.5893H135.321V19.9202C135.321 18.4787 135.077 17.4005 134.588 16.6857C134.11 15.959 133.353 15.5957 132.315 15.5957C130.919 15.5957 129.905 16.1079 129.272 17.1325C128.64 18.157 128.324 19.8428 128.324 22.1897V31.5893H122.865V11.6106H127.035L127.769 14.166H128.073C128.61 13.2487 129.386 12.5339 130.4 12.0216C131.414 11.4974 132.577 11.2354 133.89 11.2354C136.884 11.2354 138.913 12.2123 139.975 14.166H140.458C140.995 13.2368 141.782 12.516 142.82 12.0038C143.87 11.4915 145.051 11.2354 146.364 11.2354C148.631 11.2354 150.343 11.8191 151.5 12.9866C152.67 14.1422 153.254 16.0007 153.254 18.5621V31.5893H147.778V19.9202C147.778 18.4787 147.533 17.4005 147.044 16.6857C146.567 15.959 145.809 15.5957 144.771 15.5957C143.435 15.5957 142.433 16.0722 141.764 17.0253C141.108 17.9783 140.78 19.4913 140.78 21.5642V31.5893Z" fill="#2F2F2F"/>
<path d="M171.582 31.5899L170.526 28.8737H170.383C169.464 30.0293 168.516 30.8334 167.537 31.2861C166.571 31.7269 165.306 31.9473 163.743 31.9473C161.822 31.9473 160.307 31.3993 159.197 30.3033C158.1 29.2073 157.551 27.6466 157.551 25.6213C157.551 23.5007 158.291 21.9401 159.77 20.9394C161.261 19.9267 163.504 19.3668 166.499 19.2596L169.971 19.1524V18.2767C169.971 16.2515 168.933 15.2388 166.857 15.2388C165.258 15.2388 163.379 15.7213 161.22 16.6863L159.412 13.0051C161.715 11.8018 164.268 11.2002 167.072 11.2002C169.756 11.2002 171.815 11.784 173.246 12.9515C174.678 14.119 175.394 15.8941 175.394 18.2767V31.5899H171.582ZM169.971 22.3332L167.859 22.4047C166.273 22.4523 165.091 22.7383 164.316 23.2625C163.54 23.7867 163.153 24.5848 163.153 25.657C163.153 27.1939 164.035 27.9623 165.801 27.9623C167.066 27.9623 168.074 27.5989 168.826 26.8722C169.589 26.1455 169.971 25.1805 169.971 23.9773V22.3332Z" fill="#2F2F2F"/>
<path d="M189.423 27.6042C190.377 27.6042 191.522 27.3957 192.859 26.9787V31.0352C191.499 31.6428 189.828 31.9466 187.848 31.9466C185.664 31.9466 184.071 31.3986 183.069 30.3026C182.079 29.1946 181.584 27.5387 181.584 25.3347V15.7027H178.971V13.3975L181.977 11.5747L183.552 7.35742H187.042V11.6105H192.644V15.7027H187.042V25.3347C187.042 26.1091 187.257 26.6809 187.687 27.0502C188.128 27.4195 188.707 27.6042 189.423 27.6042V27.6042Z" fill="#2F2F2F"/>
<path d="M205.175 15.1132C204.018 15.1132 203.111 15.4825 202.455 16.2211C201.799 16.9478 201.423 17.9843 201.327 19.3305H208.987C208.963 17.9843 208.611 16.9478 207.931 16.2211C207.251 15.4825 206.332 15.1132 205.175 15.1132V15.1132ZM205.945 31.9467C202.723 31.9467 200.206 31.0592 198.392 29.2841C196.579 27.509 195.672 24.9953 195.672 21.7429C195.672 18.3953 196.507 15.8101 198.177 13.9873C199.86 12.1527 202.18 11.2354 205.139 11.2354C207.967 11.2354 210.168 12.0395 211.743 13.6478C213.318 15.2561 214.106 17.478 214.106 20.3133V22.9581H201.202C201.262 24.5068 201.721 25.716 202.58 26.5857C203.439 27.4554 204.644 27.8902 206.195 27.8902C207.4 27.8902 208.54 27.7651 209.614 27.515C210.687 27.2648 211.809 26.8657 212.978 26.3177V30.535C212.024 31.0115 211.004 31.363 209.918 31.5893C208.832 31.8276 207.508 31.9467 205.945 31.9467V31.9467Z" fill="#2F2F2F"/>
<path d="M21.3538 17.2586C25.1878 17.1576 27.1671 15.5321 27.5639 12.5238C27.9607 9.5153 25.7989 6.94543 22.766 6.55198C17.4638 5.86414 13.1226 11.0325 10.4609 16.6098C15.2534 15.321 17.6816 17.3554 21.3538 17.2586Z" fill="#005C96"/>
<path d="M12.5239 28.6169C15.4804 26.1795 16.0231 23.6825 14.4547 21.0695C12.8864 18.4566 9.57693 17.7625 6.94218 19.3179C2.33598 22.0369 2.14812 28.7764 3.53871 34.8049C6.5076 30.8428 9.692 30.9515 12.5239 28.6169Z" fill="#005C96"/>
<path d="M35.3672 13.7691C38.4459 16.0531 41.0209 15.9951 43.2181 13.8741C45.4153 11.7531 45.3255 8.39975 43.1868 6.22077C39.4478 2.41142 32.7951 3.79939 27.207 6.54418C31.7837 8.48504 32.4185 11.5815 35.3672 13.7691Z" fill="#005C96"/>
<path d="M33.603 67.9293C51.5147 67.9293 66.035 53.5294 66.035 35.7663C66.035 27.5066 62.8953 19.974 57.7349 14.2783C61.8724 39.085 36.3917 34.0794 20.6359 38.919C8.03124 42.7908 8.03665 52.8418 9.56113 57.3957C41.4854 69.8072 55.6426 50.6633 58.7846 39.5275C57.8699 60.7444 34.2537 66.0274 22.56 66.0168C26.0068 67.2543 29.7255 67.9293 33.603 67.9293Z" fill="#8A9C3A"/>
<path d="M55.1027 12.0387C52.7329 10.5142 49.6883 9.49378 46.6465 8.89844C48.1468 11.5461 48.1949 13.6397 48.2417 15.6776C48.271 16.952 48.2997 18.2046 48.6828 19.5573C49.7224 23.2281 51.8005 24.7372 54.8457 24.3817C54.9653 24.3678 55.0831 24.3502 55.1993 24.3291C56.0048 21.9933 56.2436 18.879 55.537 14.6423L55.1027 12.0387Z" fill="#005C96"/>
<path d="M12.8181 40.3736C12.6932 38.1665 11.5384 36.6962 9.43608 35.8713C6.5849 34.7525 3.53708 36.2076 2.40894 39.0351C0.803918 43.0579 3.15575 47.4162 6.6819 51.0184C6.83898 49.7429 7.1521 48.4228 7.6711 47.1085C8.63737 44.6615 10.2836 42.3223 12.8181 40.3736Z" fill="#005C96"/>
</svg>
