<?xml version="1.0" encoding="utf-8"?>
<!-- Generator: Adobe Illustrator 25.2.3, SVG Export Plug-In . SVG Version: 6.00 Build 0)  -->
<svg version="1.1" xmlns="http://www.w3.org/2000/svg" xmlns:xlink="http://www.w3.org/1999/xlink" x="0px" y="0px"
	 viewBox="0 0 276 66" fill="#fff" style="enable-background:new 0 0 276 66;" xml:space="preserve">
<style type="text/css">
	.st0{enable-background:new    ;}
</style>
<g id="Freswater_Information_System_for_Europe_1_" class="st0">
</g>
<g id="WISE_1_" class="st0">
</g>
<g id="FRESHWATER_1_" class="st0">
	<g id="Freswater_Information_System_for_Europe">
		<g>
			<path d="M175,8.03h4.31V6.22H175V3.41h4.85V1.59h-7.09v10.89H175V8.03z M183.55,8.49h1.79l2.04,3.99h2.41v-0.1l-2.36-4.45
				c0.65-0.29,1.14-0.69,1.46-1.19c0.32-0.5,0.48-1.12,0.48-1.86c0-1.05-0.35-1.86-1.05-2.43c-0.7-0.57-1.69-0.86-2.98-0.86h-4.05
				v10.89h2.24V8.49z M183.55,3.41h1.8c0.6,0,1.05,0.15,1.34,0.44c0.29,0.29,0.44,0.7,0.44,1.21c0,0.5-0.15,0.9-0.46,1.19
				c-0.31,0.29-0.75,0.43-1.31,0.43h-1.81V3.41z M198.54,10.68h-5.06V7.76h4.31V6h-4.31v-2.6h5.04V1.59h-7.29v10.89h7.3V10.68z
				 M203.97,10.86c-1.44,0-2.15-0.6-2.15-1.8h-2.25c0,0.7,0.18,1.32,0.54,1.86c0.36,0.53,0.89,0.95,1.58,1.26
				c0.69,0.31,1.45,0.46,2.29,0.46c1.21,0,2.17-0.27,2.88-0.8c0.71-0.54,1.07-1.28,1.07-2.22c0-0.85-0.29-1.56-0.88-2.13
				c-0.58-0.57-1.51-1.04-2.79-1.43c-0.69-0.21-1.22-0.43-1.58-0.67c-0.36-0.24-0.54-0.54-0.54-0.89c0-0.38,0.15-0.68,0.46-0.92
				c0.3-0.23,0.73-0.35,1.28-0.35c0.57,0,1.01,0.14,1.32,0.42s0.47,0.66,0.47,1.16h2.24c0-0.65-0.17-1.24-0.51-1.75
				c-0.34-0.51-0.81-0.91-1.42-1.19c-0.61-0.28-1.3-0.42-2.08-0.42c-0.77,0-1.47,0.13-2.09,0.39c-0.62,0.26-1.1,0.62-1.43,1.08
				c-0.33,0.46-0.5,0.99-0.5,1.58c0,1.13,0.62,2.03,1.86,2.7c0.45,0.24,1.07,0.49,1.85,0.74c0.78,0.25,1.32,0.49,1.62,0.72
				s0.45,0.55,0.45,0.98c0,0.39-0.15,0.69-0.45,0.91S204.5,10.86,203.97,10.86z M213.56,12.48l1.77-7.29l1.77,7.29h2.26l2.42-10.89
				h-2.24l-1.47,7.75l-1.79-7.75h-1.9l-1.8,7.74l-1.47-7.74h-2.24l2.42,10.89H213.56z M225.04,10.24h3.94l0.76,2.24h2.39
				l-4.08-10.89h-2.08l-4.06,10.89h2.39L225.04,10.24z M227,4.34l1.37,4.08h-2.72L227,4.34z M235.02,12.48h2.24V3.41h3.34V1.59
				h-8.87v1.82h3.29V12.48z M249.34,10.68h-5.06V7.76h4.31V6h-4.31v-2.6h5.04V1.59h-7.29v10.89h7.3V10.68z M253.05,8.49h1.79
				l2.04,3.99h2.41v-0.1l-2.36-4.45c0.65-0.29,1.14-0.69,1.46-1.19c0.32-0.5,0.48-1.12,0.48-1.86c0-1.05-0.35-1.86-1.05-2.43
				c-0.7-0.57-1.69-0.86-2.98-0.86h-4.05v10.89h2.24V8.49z M253.05,3.41h1.8c0.6,0,1.05,0.15,1.34,0.44
				c0.29,0.29,0.44,0.7,0.44,1.21c0,0.5-0.15,0.9-0.46,1.19c-0.31,0.29-0.75,0.43-1.31,0.43h-1.81V3.41z M172.9,29.8h2.24V18.91
				h-2.24V29.8z M184,26.09l-4.38-7.18h-2.24V29.8h2.24v-7.17l4.37,7.17h2.24V18.91H184V26.09z M195.45,20.73v-1.82h-7.09V29.8h2.24
				v-4.45h4.31v-1.81h-4.31v-2.81H195.45z M197.16,21.29c-0.39,0.82-0.58,1.76-0.58,2.83v0.54c0,1.05,0.2,1.97,0.59,2.78
				c0.39,0.81,0.94,1.43,1.65,1.86c0.71,0.43,1.51,0.65,2.42,0.65c0.91,0,1.72-0.22,2.43-0.66c0.71-0.44,1.25-1.06,1.63-1.87
				c0.38-0.81,0.57-1.75,0.57-2.82v-0.49c0-1.07-0.19-2.01-0.58-2.82c-0.39-0.82-0.93-1.44-1.64-1.88
				c-0.71-0.44-1.51-0.65-2.42-0.65c-0.91,0-1.71,0.22-2.42,0.65C198.09,19.85,197.54,20.48,197.16,21.29z M198.85,24.07
				c0-1.13,0.21-1.99,0.62-2.58c0.41-0.59,0.99-0.88,1.74-0.88c0.76,0,1.34,0.3,1.75,0.89c0.41,0.59,0.61,1.46,0.61,2.6v0.53
				c-0.01,1.13-0.21,1.99-0.61,2.59c-0.4,0.59-0.98,0.89-1.74,0.89c-0.77,0-1.36-0.31-1.77-0.92c-0.41-0.61-0.61-1.48-0.61-2.59
				V24.07z M215.23,24.06c0.32-0.5,0.48-1.12,0.48-1.86c0-1.05-0.35-1.86-1.05-2.43c-0.7-0.57-1.69-0.86-2.98-0.86h-4.05V29.8h2.24
				v-3.99h1.79l2.04,3.99h2.41v-0.1l-2.36-4.45C214.42,24.95,214.91,24.56,215.23,24.06z M213.01,23.57
				c-0.31,0.29-0.75,0.43-1.31,0.43h-1.81v-3.27h1.8c0.6,0,1.05,0.15,1.34,0.44c0.29,0.29,0.44,0.7,0.44,1.21
				C213.47,22.89,213.31,23.28,213.01,23.57z M226.79,29.8h2.25V18.91h-2.95l-2.78,7.9l-2.8-7.9h-2.93V29.8h2.24v-2.98l-0.22-5.13
				l2.93,8.11h1.54l2.94-8.12l-0.22,5.14V29.8z M238.2,29.8h2.39l-4.08-10.89h-2.08l-4.06,10.89h2.39l0.75-2.24h3.94L238.2,29.8z
				 M234.11,25.74l1.35-4.08l1.37,4.08H234.11z M245.72,29.8v-9.08h3.34v-1.82h-8.87v1.82h3.29v9.08H245.72z M252.88,18.91h-2.24
				V29.8h2.24V18.91z M259.44,29.95c0.91,0,1.72-0.22,2.43-0.66c0.71-0.44,1.25-1.06,1.63-1.87c0.38-0.81,0.57-1.75,0.57-2.82v-0.49
				c0-1.07-0.19-2.01-0.58-2.82c-0.39-0.82-0.93-1.44-1.64-1.88c-0.71-0.44-1.51-0.65-2.42-0.65c-0.91,0-1.71,0.22-2.42,0.65
				c-0.71,0.44-1.25,1.06-1.64,1.88c-0.39,0.82-0.58,1.76-0.58,2.83v0.54c0,1.05,0.2,1.97,0.59,2.78c0.39,0.81,0.94,1.43,1.65,1.86
				C257.73,29.74,258.54,29.95,259.44,29.95z M257.06,24.07c0-1.13,0.21-1.99,0.62-2.58c0.41-0.59,0.99-0.88,1.74-0.88
				c0.76,0,1.34,0.3,1.75,0.89c0.41,0.59,0.61,1.46,0.61,2.6v0.53c-0.01,1.13-0.21,1.99-0.61,2.59c-0.4,0.59-0.98,0.89-1.74,0.89
				c-0.77,0-1.36-0.31-1.77-0.92c-0.41-0.61-0.61-1.48-0.61-2.59V24.07z M272.47,18.91v7.18l-4.38-7.18h-2.24V29.8h2.24v-7.17
				l4.37,7.17h2.24V18.91H272.47z M175.34,38.22c0.3-0.23,0.73-0.35,1.28-0.35c0.57,0,1.01,0.14,1.32,0.42s0.47,0.66,0.47,1.16h2.24
				c0-0.65-0.17-1.24-0.51-1.75c-0.34-0.51-0.81-0.91-1.42-1.19c-0.61-0.28-1.3-0.42-2.08-0.42c-0.77,0-1.47,0.13-2.09,0.39
				c-0.62,0.26-1.1,0.62-1.43,1.08c-0.33,0.46-0.5,0.99-0.5,1.58c0,1.13,0.62,2.03,1.86,2.7c0.45,0.24,1.07,0.49,1.85,0.74
				c0.78,0.25,1.32,0.49,1.62,0.72c0.3,0.23,0.45,0.55,0.45,0.98c0,0.39-0.15,0.69-0.45,0.91c-0.3,0.22-0.72,0.33-1.25,0.33
				c-1.44,0-2.15-0.6-2.15-1.8h-2.25c0,0.7,0.18,1.32,0.54,1.86c0.36,0.53,0.89,0.95,1.58,1.26c0.69,0.31,1.45,0.46,2.29,0.46
				c1.21,0,2.17-0.27,2.88-0.8c0.71-0.54,1.07-1.28,1.07-2.22c0-0.85-0.29-1.56-0.88-2.12c-0.58-0.57-1.51-1.04-2.79-1.43
				c-0.69-0.21-1.22-0.43-1.58-0.67c-0.36-0.24-0.53-0.54-0.53-0.89C174.88,38.76,175.03,38.45,175.34,38.22z M186.09,41.14
				l-2.25-4.91h-2.46l3.58,6.94v3.95h2.28v-3.95l3.58-6.94h-2.45L186.09,41.14z M195.79,45.5c-1.44,0-2.15-0.6-2.15-1.8h-2.25
				c0,0.7,0.18,1.32,0.54,1.86c0.36,0.53,0.89,0.95,1.58,1.26c0.69,0.31,1.45,0.46,2.29,0.46c1.21,0,2.17-0.27,2.88-0.8
				c0.71-0.54,1.07-1.28,1.07-2.22c0-0.85-0.29-1.56-0.88-2.12c-0.58-0.57-1.51-1.04-2.79-1.43c-0.69-0.21-1.22-0.43-1.58-0.67
				c-0.36-0.24-0.54-0.54-0.54-0.89c0-0.38,0.15-0.68,0.46-0.92c0.3-0.23,0.73-0.35,1.28-0.35c0.57,0,1.01,0.14,1.32,0.42
				s0.47,0.66,0.47,1.16h2.24c0-0.65-0.17-1.24-0.51-1.75c-0.34-0.51-0.81-0.91-1.42-1.19c-0.61-0.28-1.3-0.42-2.08-0.42
				c-0.77,0-1.47,0.13-2.09,0.39c-0.62,0.26-1.1,0.62-1.43,1.08c-0.33,0.46-0.5,0.99-0.5,1.58c0,1.13,0.62,2.03,1.86,2.7
				c0.45,0.24,1.07,0.49,1.85,0.74c0.78,0.25,1.32,0.49,1.62,0.72c0.3,0.23,0.45,0.55,0.45,0.98c0,0.39-0.15,0.69-0.45,0.91
				C196.74,45.4,196.33,45.5,195.79,45.5z M204.04,47.13h2.24v-9.08h3.34v-1.82h-8.87v1.82h3.29V47.13z M218.36,45.32h-5.06v-2.92
				h4.31v-1.76h-4.31v-2.6h5.04v-1.82h-7.29v10.89h7.3V45.32z M225.56,44.13l-2.8-7.9h-2.93v10.89h2.24v-2.98l-0.22-5.13l2.93,8.11
				h1.54l2.94-8.12l-0.22,5.14v2.98h2.25V36.23h-2.95L225.56,44.13z M236.84,47.13h2.24v-4.45h4.31v-1.81h-4.31v-2.81h4.85v-1.82
				h-7.09V47.13z M252.12,36.74c-0.71-0.44-1.51-0.65-2.42-0.65c-0.91,0-1.71,0.22-2.42,0.65c-0.71,0.44-1.25,1.06-1.64,1.88
				c-0.39,0.82-0.58,1.76-0.58,2.83v0.54c0,1.05,0.2,1.97,0.59,2.78c0.39,0.81,0.94,1.43,1.65,1.86c0.71,0.43,1.51,0.65,2.42,0.65
				c0.91,0,1.72-0.22,2.43-0.66c0.71-0.44,1.25-1.06,1.63-1.87c0.38-0.81,0.57-1.75,0.57-2.82v-0.49c0-1.07-0.19-2.01-0.58-2.82
				C253.37,37.8,252.83,37.17,252.12,36.74z M252.07,41.96c-0.01,1.13-0.21,1.99-0.61,2.59c-0.4,0.59-0.98,0.89-1.74,0.89
				c-0.77,0-1.36-0.31-1.77-0.92c-0.41-0.61-0.61-1.48-0.61-2.59V41.4c0-1.13,0.21-1.99,0.62-2.58c0.41-0.59,0.99-0.88,1.74-0.88
				c0.76,0,1.34,0.3,1.75,0.89c0.41,0.59,0.61,1.46,0.61,2.6V41.96z M263.72,41.39c0.32-0.5,0.48-1.12,0.48-1.86
				c0-1.05-0.35-1.86-1.05-2.43c-0.7-0.57-1.69-0.86-2.98-0.86h-4.05v10.89h2.24v-3.99h1.79l2.04,3.99h2.41v-0.1l-2.36-4.45
				C262.91,42.28,263.4,41.88,263.72,41.39z M261.49,40.89c-0.31,0.29-0.75,0.43-1.31,0.43h-1.81v-3.27h1.8
				c0.6,0,1.05,0.15,1.34,0.44c0.29,0.29,0.44,0.7,0.44,1.21C261.96,40.21,261.8,40.6,261.49,40.89z M175,59.73h4.31v-1.76H175v-2.6
				h5.04v-1.82h-7.29v10.89h7.3v-1.8H175V59.73z M187.52,60.81c-0.02,1.33-0.66,1.99-1.92,1.99c-0.6,0-1.08-0.16-1.42-0.49
				c-0.34-0.33-0.51-0.85-0.51-1.56v-7.19h-2.24v7.26c0.02,1.18,0.4,2.1,1.14,2.78c0.75,0.67,1.76,1.01,3.03,1.01
				c1.29,0,2.31-0.35,3.06-1.04c0.75-0.69,1.12-1.64,1.12-2.83v-7.18h-2.25V60.81z M199.36,58.71c0.32-0.5,0.48-1.12,0.48-1.86
				c0-1.05-0.35-1.86-1.05-2.43c-0.7-0.57-1.69-0.86-2.98-0.86h-4.05v10.89h2.24v-3.99h1.79l2.04,3.99h2.41v-0.1l-2.36-4.45
				C198.55,59.6,199.04,59.2,199.36,58.71z M197.14,58.21c-0.31,0.29-0.75,0.43-1.31,0.43h-1.81v-3.27h1.8
				c0.6,0,1.05,0.15,1.34,0.44c0.29,0.29,0.44,0.7,0.44,1.21C197.6,57.53,197.45,57.93,197.14,58.21z M208.44,54.06
				c-0.71-0.44-1.51-0.65-2.42-0.65c-0.91,0-1.71,0.22-2.42,0.65c-0.71,0.44-1.25,1.06-1.64,1.88c-0.39,0.82-0.58,1.76-0.58,2.83
				v0.54c0,1.05,0.2,1.97,0.59,2.78c0.39,0.81,0.94,1.43,1.65,1.86c0.71,0.43,1.51,0.65,2.42,0.65c0.91,0,1.72-0.22,2.43-0.66
				c0.71-0.44,1.25-1.06,1.63-1.87c0.38-0.81,0.57-1.75,0.57-2.82v-0.49c0-1.07-0.19-2.01-0.58-2.82
				C209.69,55.12,209.14,54.5,208.44,54.06z M208.38,59.29c-0.01,1.13-0.21,1.99-0.61,2.59s-0.98,0.89-1.74,0.89
				c-0.77,0-1.36-0.31-1.77-0.92c-0.41-0.61-0.61-1.48-0.61-2.59v-0.53c0-1.13,0.21-1.99,0.62-2.58c0.41-0.59,0.99-0.88,1.74-0.88
				c0.76,0,1.34,0.3,1.75,0.89c0.41,0.59,0.61,1.46,0.61,2.6V59.29z M218.85,54.01c-0.62-0.3-1.34-0.45-2.16-0.45h-4.25v10.89h2.24
				v-3.84h1.97c1.29,0,2.3-0.31,3.03-0.92c0.73-0.62,1.1-1.46,1.1-2.53c0-0.7-0.17-1.33-0.5-1.88
				C219.95,54.73,219.47,54.3,218.85,54.01z M218.05,58.37c-0.31,0.28-0.76,0.42-1.36,0.42h-2.01v-3.42h2.06
				c0.55,0.01,0.99,0.18,1.3,0.51c0.31,0.33,0.47,0.76,0.47,1.29C218.52,57.7,218.36,58.1,218.05,58.37z M224.73,59.73h4.31v-1.76
				h-4.31v-2.6h5.04v-1.82h-7.29v10.89h7.3v-1.8h-5.06V59.73z"/>
		</g>
	</g>
	<g id="WISE">
		<g>
			<path d="M44.63,28.06L37.85,1.7H26.83L20.6,28.01L14.2,1.7H1l12.14,45.71h12.29l6.04-25.21l6.39,25.21h11.79L61.78,1.7H51.04
				L44.63,28.06z M66.24,47.41h14.03V1.7H66.24V47.41z M116.59,20.38c-2.3-0.89-6.18-1.91-11.66-3.07
				c-1.99-0.42-3.33-0.87-4.02-1.34c-0.69-0.47-1.04-1.13-1.04-1.98c0-1.9,1.53-2.85,4.59-2.85c3.68,0,6.13,1.53,7.33,4.59
				l11.62-3.52C120.42,4.74,114.27,1,104.96,1c-6.14,0-10.84,1.43-14.11,4.29c-3.27,2.86-4.91,6.44-4.91,10.75
				c0,3.35,1.14,6.26,3.41,8.74c2.28,2.48,7.42,4.49,15.44,6.02c2.1,0.42,3.56,0.91,4.37,1.46c0.81,0.55,1.22,1.31,1.22,2.29
				c0,1.88-1.76,2.81-5.29,2.81c-4.53,0-7.34-1.84-8.44-5.53l-13.03,2.34c2.61,9.29,9.49,13.93,20.63,13.93
				c6.09,0,11.02-1.44,14.77-4.31c3.75-2.87,5.63-6.62,5.63-11.24c0-2.93-0.77-5.47-2.31-7.62
				C120.8,22.79,118.89,21.27,116.59,20.38z M164.24,12.25V1.7h-34.39v45.71h34.39V36.5h-20.63v-7.47h16.68V18.88h-16.68v-6.63
				H164.24z"/>
		</g>
	</g>
	<g id="FRESHWATER">
		<g>
			<path d="M13.14,64.75H18v-6.09h5.31v-3.66H18v-2.65h6.91v-3.88H13.14V64.75z M40.43,55.75C40.81,55.03,41,54.2,41,53.26
				c0-1.44-0.52-2.6-1.56-3.48c-1.04-0.88-2.49-1.32-4.37-1.32h-8.5v16.28h5v-6.23h1.58l2.38,6.23h5.54l-2.95-7.1
				C39.28,57.1,40.05,56.47,40.43,55.75z M35.22,54.65c-0.38,0.26-0.89,0.39-1.51,0.39h-2.13v-3.11h2.3c1.28,0,1.92,0.52,1.92,1.56
				C35.79,54,35.6,54.38,35.22,54.65z M42.93,64.75h12.25v-3.89h-7.35V58.2h5.94v-3.61h-5.94v-2.36h7.35v-3.76H42.93V64.75z
				 M67.4,55.12c-0.82-0.32-2.2-0.68-4.15-1.09c-0.71-0.15-1.19-0.31-1.43-0.48c-0.25-0.17-0.37-0.4-0.37-0.7
				c0-0.68,0.54-1.01,1.63-1.01c1.31,0,2.18,0.54,2.61,1.63l4.14-1.25c-1.07-2.66-3.26-4-6.57-4c-2.19,0-3.86,0.51-5.03,1.53
				c-1.16,1.02-1.75,2.29-1.75,3.83c0,1.19,0.41,2.23,1.22,3.11c0.81,0.88,2.64,1.6,5.5,2.15c0.75,0.15,1.27,0.32,1.56,0.52
				c0.29,0.19,0.44,0.47,0.44,0.82c0,0.67-0.63,1-1.88,1c-1.61,0-2.62-0.66-3.01-1.97l-4.64,0.83c0.93,3.31,3.38,4.96,7.35,4.96
				c2.17,0,3.92-0.51,5.26-1.53c1.34-1.02,2-2.36,2-4c0-1.04-0.27-1.95-0.82-2.72C68.9,55.98,68.22,55.44,67.4,55.12z M80.57,54.46
				h-3.82v-5.99h-5v16.28h5v-6.33h3.82v6.33h5V48.47h-5V54.46z M105.18,48.47l-2.28,9.39l-2.42-9.39h-3.92l-2.22,9.37l-2.28-9.37
				h-4.7l4.33,16.28h4.38l2.15-8.98l2.28,8.98h4.2L109,48.47H105.18z M113.46,48.47l-5.03,16.28h4.06l0.98-3.21h4.36l0.92,3.21h5.1
				l-5.11-16.28H113.46z M114.32,57.99l1.32-4.72l1.32,4.72H114.32z M122.81,52.37h3.38v12.38h4.74V52.37h3.38v-3.9h-11.49V52.37z
				 M135.31,64.75h12.25v-3.89h-7.35V58.2h5.94v-3.61h-5.94v-2.36h7.35v-3.76h-12.25V64.75z M161.26,57.65
				c1.16-0.55,1.93-1.18,2.31-1.9c0.38-0.72,0.57-1.55,0.57-2.49c0-1.44-0.52-2.6-1.56-3.48c-1.04-0.88-2.49-1.32-4.37-1.32h-8.5
				v16.28h5v-6.23h1.58l2.38,6.23h5.54L161.26,57.65z M158.36,54.65c-0.38,0.26-0.89,0.39-1.51,0.39h-2.13v-3.11h2.3
				c1.28,0,1.92,0.52,1.92,1.56C158.94,54,158.75,54.38,158.36,54.65z"/>
		</g>
	</g>
</g>
</svg>
